$MeshFormat
2.2 0 8
$EndMeshFormat
$PhysicalNames
1
2 1 "sphere1"
$EndPhysicalNames
$Nodes
685
1 3.061616997868383e-17 -7.498798913309288e-33 0.5
2 3.061616997868383e-17 -7.498798913309288e-33 -0.5
3 0.07821723252011534 -1.91576966887847e-17 -0.4938441702975689
4 0.1545084971874736 -3.784366730434147e-17 -0.4755282581475768
5 0.2269952498697737 -5.55978012349344e-17 -0.4455032620941838
6 0.2938926261462368 -7.198293278059974e-17 -0.4045084971874735
7 0.353553390593274 -8.659560562354939e-17 -0.3535533905932735
8 0.4045084971874742 -9.907600726170927e-17 -0.293892626146236
9 0.4455032620941843 -1.091168287866694e-16 -0.2269952498697727
10 0.4755282581475772 -1.164708318489093e-16 -0.1545084971874726
11 0.4938441702975691 -1.209569364864997e-16 -0.07821723252011424
12 0.5 -1.224646799147353e-16 1.209802949635453e-15
13 0.4938441702975687 -1.209569364864996e-16 0.07821723252011618
14 0.4755282581475765 -1.164708318489092e-16 0.1545084971874744
15 0.4455032620941838 -1.091168287866693e-16 0.2269952498697737
16 0.4045084971874735 -9.907600726170911e-17 0.2938926261462368
17 0.3535533905932736 -8.659560562354928e-17 0.353553390593274
18 0.2938926261462367 -7.19829327805997e-17 0.4045084971874736
19 0.2269952498697735 -5.559780123493435e-17 0.4455032620941839
20 0.1545084971874739 -3.784366730434154e-17 0.4755282581475768
21 0.07821723252011559 -1.915769668878476e-17 0.4938441702975688
22 -0.2409972526254465 0.4341523398117073 -0.05858387203835658
23 -0.2010041364764745 0.4421246655420322 -0.1188407221397319
24 -0.1806831566051409 0.4606438715889806 -0.07183885081706727
25 -0.2750697540653358 0.4027760304653706 -0.1100368105726195
26 0.1124393709866805 -0.2013359729683852 -0.4436453694574004
27 0.1465049900653907 -0.2566310071294997 -0.4033321386470938
28 0.1776846997213103 -0.1898500091152892 -0.4270657110139754
29 0.0335589214408849 -0.0435775917635117 0.4969655846110646
30 0.07224966703082011 -0.2564884235152029 -0.4230764401578295
31 -0.490633380613328 -0.05006514901534909 0.08229439034349888
32 -0.4954692037393842 0.01746641537548232 0.06484745546119559
33 -0.486182315290407 -0.009130136988945914 0.1163761010578305
34 -0.1563364808297745 -0.2256852527234326 0.4178816476766142
35 -0.1867973705780791 -0.1669162739806943 0.4327189617124694
36 -0.102854806078443 -0.1934290332984159 0.4494508849071344
37 0.2285576014443781 -0.3838215736618369 -0.2245939055578844
38 0.1823525856999389 -0.3732120129519534 -0.2783169557840438
39 0.1612296488499949 -0.4233068191439102 -0.2116986943700225
40 -0.07767862252546739 0.06948149693805834 0.4890177432218513
41 -0.08677256672615195 0.01390290388827116 0.4922166503961736
42 -0.1426287060655777 0.05747628060174702 0.4757662549763784
43 -0.1306077799156379 -0.01579893873599931 0.4823815930985805
44 0.1175419686002159 -0.4161374352744914 -0.2510249401568584
45 -0.2248541096507911 -0.04933362905308065 0.4438545059111184
46 -0.2870610499093511 -0.0554476501065485 0.4056125142578848
47 -0.252371924922643 0.0262401769797226 0.4308362387530936
48 -0.294813152977455 0.3140959263102008 0.2538285915865836
49 -0.2468590675100062 0.2930969883844617 0.3211771414469731
50 -0.3141833734191714 0.2574455727128176 0.291565747229538
51 -0.07667621270401627 0.07700408150438932 -0.4880482863785445
52 -0.09532449668119881 0.1374579087672707 -0.4711884587400298
53 -0.1405822536947302 0.0713855438146645 -0.4744899725815026
54 -0.2241081047915519 0.3599050985994967 0.2650356152837301
55 -0.1749933471405909 -0.3690030302792346 0.2884685287882803
56 -0.2332745451709799 -0.3765438741319221 0.2319433064975052
57 -0.2407511693759347 -0.3371196577090833 0.2799807329625212
58 -0.123989277029234 -0.1247596694570521 0.4680402590149003
59 -0.04382567675302361 -0.1350361088298898 0.4794210668809013
60 -0.03503066325531665 -0.2163503756625273 0.4494055713746503
61 -0.2035166329693649 -0.02845873728578606 -0.4558191312098598
62 -0.2675517995114219 -0.07600718342763017 -0.4154984267666949
63 -0.1840616541549015 -0.09768318572976867 -0.454509958851778
64 -0.2665557670233913 0.009458271481372189 -0.4229167343191283
65 0.17571244334118 -0.1330941754425173 0.4487884554200888
66 0.09984625472019686 -0.1186625597901852 0.4753419004489193
67 0.1545889787875134 -0.07265006519658165 0.4699193714504289
68 -0.03201179093718437 0.04317824341639784 -0.4971024889662777
69 -0.05577274795969061 -0.01960931659557705 -0.4964925732452393
70 0.008400687253815884 -0.05117423843908894 -0.4973033538735113
71 0.1034020101167556 -0.1804700023929151 0.4546851685948373
72 -0.1723751477781507 -0.4071048321241452 0.2335646893039104
73 0.2348769044553979 -0.06557269869464591 -0.4365009289100666
74 0.160693133008641 -0.05775380856462577 -0.4699385221495975
75 -0.4259483094548555 0.02734722473610896 -0.2604230538408291
76 -0.3942214787481071 -0.01030168032886592 -0.3073813609769753
77 -0.3756802276754243 0.06424214720363787 -0.3236314463342638
78 -0.180035396409099 0.1230172690784839 0.449948894373895
79 -0.1146177113061228 0.121612698171125 0.4712463600904363
80 -0.3547789543702634 -0.008985982152093192 -0.3522089517043893
81 -0.1579230955504567 -0.06322273858425147 0.4701735649924065
82 -0.1865850164087485 0.001959622004246637 0.4638773453547258
83 0.318041412318302 -0.06702181774617831 -0.3799443853994659
84 0.278080807335042 -0.08685726719381288 -0.4063580683676821
85 0.2956363908350035 -0.1532610210737548 -0.3729747764038248
86 0.2388824870819492 -0.1459305086201556 -0.4142939101886547
87 -0.05318220818122086 0.4268371163057609 -0.2549151405404387
88 -0.08452448221888392 0.4508402675665752 -0.1989941331952489
89 -0.1308651179078547 0.4183208994935795 -0.2405866703744117
90 -0.01136602018167853 0.454699741983959 -0.2076510491785456
91 -0.1375745045485731 0.4790148650829387 -0.04022455379228793
92 -0.1607795096116325 0.4727752690537427 0.02516931187386974
93 -0.203207452819198 0.4565952330982979 -0.0150839063456501
94 -0.06636993665334898 0.2383134034292288 -0.4345132371454385
95 -0.07806914716078485 0.2858878228742611 -0.4027075377911405
96 -0.1331678304631004 0.2445220397294585 -0.4153014579992418
97 -0.09330512210656119 0.4911457879855517 0.008364755389802175
98 0.1898671476495866 0.06740048445676024 -0.4576107963525381
99 0.1230577731610722 0.04818469610586271 -0.4822188502390006
100 -0.4370749319512605 -0.2399752557201446 0.03711307723501548
101 -0.4004413511550377 -0.2993059403118982 0.007916967799493611
102 -0.4350732690357937 -0.2438247796228911 -0.03550672348100353
103 0.4921817972729219 0.08489093064850453 0.02346504478638879
104 0.4917244510529742 0.0710012003773717 -0.05626627570422181
105 0.1104119778213539 0.0684339725547696 0.4828312195311628
106 0.03357578189089402 0.1031190323129021 0.4880974616255095
107 0.09560106569267002 0.1392455796809177 0.4706071660926457
108 -0.376602505119515 -0.07822158068216821 -0.3194556893424951
109 -0.3993607037897769 -0.1370604699949741 -0.2678160858374471
110 -0.3431281130477603 -0.1456212842545453 -0.3332529663909091
111 -0.3540659201291859 -0.2061239404519483 -0.2866186410121202
112 -0.4799627734236709 -0.1243511155747841 -0.06459517151277371
113 -0.4935399447597899 -0.0630960367716161 -0.04936813820895367
114 -0.4896251800538243 -0.1009729024573692 -0.008464988280840479
115 0.3820355485199567 -0.1328922423324665 -0.2939191922874462
116 0.4035857505628507 -0.1636144460239592 -0.245660039475071
117 0.4261658702269632 -0.09343983639082487 -0.2442368686929782
118 0.4502161283909238 0.2072177597376361 0.06607751346715836
119 0.4395256673913666 0.201361173286709 0.1275573031886991
120 0.4216082545934866 0.2545368168605122 0.08635675145089641
121 0.2586459742090594 -0.3378066715688143 -0.2626574055096216
122 0.2312063616299277 -0.3020750680487814 -0.3244907881668989
123 0.2974437737955608 -0.2785351849448154 -0.2897332431358417
124 -0.111545838978891 -0.4337283198351711 0.2223449355831043
125 -0.1075298608675946 -0.4092939398220305 0.266300206246176
126 0.03233089839824335 -0.1000844338008794 0.4888126626014509
127 -0.01950200185371809 -0.06452320088468377 0.4954355946753244
128 -0.03615304750038886 0.1175020210154895 0.4846506290243623
129 0.3976412259202322 0.259535162532231 0.1565980678617182
130 0.1335185501222385 -0.4579912334519041 -0.1497224994930914
131 0.1176507936752381 -0.4797685555327903 -0.0773332003059904
132 0.1807097056135656 -0.4542958285132476 -0.1046866872745548
133 -0.09091486990122943 0.3969240291995898 -0.2901478958648601
134 -0.0961602369275333 0.345655028388618 -0.3482467662214602
135 -0.02703801823883295 0.3913564909824611 -0.3100145843917854
136 0.06420365919527782 -0.4807013278759292 -0.1216721970059513
137 0.455745144268733 0.1265479131280968 0.162117208088455
138 0.4077933349334116 0.2004547114875277 0.2086204798823414
139 0.2638759126518353 0.3404535155689731 -0.2538915249843681
140 0.2106594510847195 0.3527773621207095 -0.284904770833762
141 0.2531498396773416 0.3070123812120185 -0.3027516415378495
142 -0.1363488169553768 -0.2871295772964249 0.3859606274692349
143 -0.2000890170299888 -0.3144997689748875 0.3332480766316817
144 -0.1961494156734661 -0.2638295585788843 0.3767218745321658
145 -0.1368555726115536 -0.335911541799403 0.3441423954282758
146 0.3452751368879227 0.09116024854847543 -0.3499641252065795
147 0.3300683735369678 0.1637255479209777 -0.3380071208549257
148 0.2870981260395425 0.1366832676921345 -0.3858657154472049
149 0.1678546158743022 0.140273839762552 -0.4496088053051901
150 0.159820625938983 0.2181978820212935 -0.420531867764969
151 0.1132014664631453 0.1764623394684522 -0.4539234194662291
152 0.4758733347453689 0.05370049495384117 0.1437387425854091
153 0.4450998278072743 0.05465463118359452 0.221131215743323
154 -0.05347678836864737 -0.08242859147196355 -0.4902507117931835
155 -0.1167451191222122 -0.1153825023726424 -0.4722895883961107
156 -0.05331755323382966 -0.1343396823897382 -0.4786544560041012
157 -0.1243737616586303 -0.05162262343146867 -0.4815249444846393
158 0.4583445807351503 -0.1409117634892674 -0.1416478740435734
159 0.4230993199824145 -0.1867564777909896 -0.1900236391439813
160 0.434334881569941 -0.2072397310334129 -0.1356646768058068
161 -0.3249420349058909 0.313723110991233 -0.2144539194820213
162 -0.2730096937675278 0.3438689507013399 -0.2392067136443293
163 -0.2852559491919351 0.3716670646161253 -0.1746214091405778
164 -0.07228473623940752 0.1843933874033636 0.459101291207847
165 -0.4134023454593819 0.2603568526687843 -0.106361694406806
166 -0.378413377818181 0.2906067029587217 -0.1495027079477021
167 -0.3768609035728848 0.3174532688172065 -0.08484857969052442
168 0.3925102912590108 -0.256964164481397 -0.172930880493173
169 -0.3960809149479133 -0.04372053468421971 0.3020073238531639
170 -0.4360680138949941 0.01562071588288847 0.244132506014626
171 -0.4055126267403419 0.03096229177304745 0.2908622458180312
172 -0.4438424454635269 -0.04934230373861234 0.2248760117636442
173 0.4216636735925852 0.06389125283777536 -0.2609935903106151
174 0.4195660811388537 0.1390198331903425 -0.2337472770697323
175 0.3822170704507383 0.1282835487544788 -0.2957252815959647
176 0.3707913752764741 0.1977477417580667 -0.2709420355909469
177 -0.4821741699725254 0.04682899285782557 0.1237542534187328
178 0.09186444002669319 0.4695047395110411 -0.1453486299737687
179 0.08172325984461011 0.4888026975183541 -0.06628145818515752
180 0.03024268565223916 0.4857140727989843 -0.1147485052171173
181 0.1357184242611892 0.4717153907677851 -0.09521081571363399
182 0.1681624590104766 0.4484818315996764 -0.1434762492698678
183 -0.413239958680067 -0.1069175861005794 0.2603869549968311
184 -0.3628122617232215 0.006596131753286188 0.3439821998144293
185 -0.3463902786059844 -0.06445025672100024 0.3547674439627538
186 0.01035249243973958 -0.4658228781846231 -0.181388731899418
187 -0.01098924989641061 -0.4831596888385402 -0.1282027748067853
188 -0.3716446650423806 -0.117449018934706 0.3131867987269129
189 0.2339601689693102 -0.4254098463665734 -0.119537031710764
190 0.2255804370024317 -0.4409984905438054 -0.06807200437681529
191 0.2830743218905932 -0.4025383918527165 -0.08849729583896696
192 0.09331844359560421 -0.05355399831339594 0.4882864296184595
193 -0.09771042297231718 0.01795207028293912 -0.4900310157685198
194 0.3143299891318665 0.2473413741421934 -0.3000315026289941
195 0.3634723552252462 0.2585426850382051 -0.2259281456575251
196 0.1202353099633959 0.1043298218905532 -0.4739818124171977
197 -0.1788626987323917 0.4575803999763999 0.09288871061438796
198 -0.202756905776484 0.4292340043188279 0.1569961996239731
199 -0.2335796049437684 0.4289980831315301 0.1067764619370109
200 -0.01516751985869205 0.119694801030854 -0.4852247942423392
201 -0.1209992819847906 0.4658012099437771 0.1356038589940507
202 0.3108714977292278 0.3069203940060111 -0.2432257873721075
203 0.1975808430619713 -0.3627233236888046 0.2817687010777943
204 0.1856420985597895 -0.3110386093903902 0.3446621457468309
205 0.2291715429861641 -0.3190523847322845 0.3093315045092935
206 0.1226239321266172 -0.3690435680108636 0.3142772918612127
207 0.1353892240684182 -0.3979560640683789 0.2707410738645986
208 -0.3188326476796517 -0.002641941513386081 0.385147715712586
209 -0.1889345051975246 -0.1110290052675661 0.4494177485759339
210 -0.2461584182053892 -0.1113097070091608 0.4207329108498116
211 -0.3865086441665107 -0.2675270899386122 -0.170412218263666
212 -0.3696338501008153 -0.3119559208174573 -0.1267056444148418
213 -0.329938997483676 -0.329923094637568 -0.1796969937540336
214 0.06243626150922409 0.4461896922728348 -0.2168328198364462
215 0.02193266944660701 0.4252234311864829 -0.262114462746603
216 0.09913732921692983 0.4081062558461853 -0.2713320362488404
217 0.4768035876761274 0.06231373474240878 -0.137023126667093
218 0.470225105439538 0.1366608811729665 -0.1010552016048838
219 0.4502015700282349 0.1375333856344688 -0.1685322348396082
220 0.442275682504485 0.1903966378030063 -0.134689795376275
221 0.04162206162654182 0.3899954428887333 -0.3101147505553019
222 0.09599228182121711 0.356766670530638 -0.3369020994728872
223 -0.3700938786785394 -0.3170211693684767 0.1119289914942424
224 -0.3549691926195456 -0.3482890800603236 0.05188052622864738
225 -0.3991654084803463 -0.2938235318440834 0.06583850550693877
226 0.08245553858963724 -0.07727403237228803 -0.4870624272891714
227 0.1404925322397743 0.3759874959953947 -0.2981530667961828
228 -0.0640124097745467 -0.4310555504572342 0.2451398046316965
229 -0.02205017185981422 -0.4128091818098745 0.2812514343686351
230 -0.2501667338498142 0.08511981075848619 -0.4244658090958042
231 -0.1754687031751917 0.1280540930542668 -0.4503475141022382
232 -0.2268298799921903 0.150778567888949 -0.4193018352071526
233 -0.1820078593711562 0.2016226308266948 -0.4197873912656879
234 0.4150713900080079 -0.263748117529903 -0.09029214637083723
235 0.4577153912617427 -0.1890069664513834 -0.06908680941363182
236 -0.2018725904936658 0.04902962362953413 -0.4548005642192223
237 -0.1648638966611464 0.00359548693349739 -0.4720243299358772
238 -0.2581182060204142 -0.2441855534515356 0.3517789180811867
239 -0.2159830396761947 -0.2187967191308571 0.3943086637011722
240 -0.2551323440180644 -0.1752883288538785 0.3926595074660266
241 -0.4837128733514519 -0.06765239651045572 -0.1069813507134508
242 -0.2953409227287963 0.1519119964166314 0.3737599292412398
243 -0.2415921369377247 0.1036943924410064 0.4253007316548542
244 -0.3165314918857056 0.06790326197960063 0.3810471908532317
245 0.3760447508386724 -0.3014894496921807 -0.133020513797635
246 -0.2987442944440066 -0.3995484257828112 0.03336018572535246
247 -0.2613962959871349 -0.4261554341231231 -0.007970094826205146
248 -0.2953494991448163 -0.4000282468166109 -0.05240300662876846
249 -0.4701637893884146 -0.1701326171110787 -0.0009506539125845033
250 -0.4563160907848407 -0.1877199347443582 -0.08085079709201969
251 -0.3770077423402318 0.2615038470504498 -0.198698012555074
252 -0.3498300341800984 0.252992901978697 -0.2522172451160875
253 -0.2282829893856231 -0.1542083409060247 -0.417260906810325
254 0.1722959343180531 0.1251921075763804 0.4523726861980651
255 0.1506495757048914 0.1886173460836015 0.4378677906586816
256 0.2229823546156403 0.1763990917984127 0.4112933623859739
257 -0.2217723301981636 -0.4452450412003637 -0.05073348839734115
258 -0.252264749929083 -0.4144727850386806 -0.1207261628873247
259 -0.3525523971304386 -0.3542052045110847 -0.01566781333952256
260 -0.1899820127161351 -0.4502385972687188 -0.105792440059877
261 0.3305698833764882 0.3696065636827023 0.06414468245396107
262 0.3505341540734571 0.356544681998249 -0.001302523233321074
263 0.3830443217927566 0.3169167659043112 0.05329925919822108
264 0.2879955827465575 0.4078726173630152 0.02642862697746844
265 -0.1626549334997203 0.3702861393169969 -0.2939924278581255
266 -0.2088345843912488 0.3790768632652224 -0.25037741131966
267 -0.1488168066668907 0.1737834912964432 0.4445816642713556
268 -0.2932437874002181 -0.3200400106810258 -0.2481581606848031
269 -0.2281868116693149 -0.3580769556416357 -0.264029681700014
270 -0.2562946042153431 -0.3075307970680453 -0.2995628226345743
271 -0.3952853163464088 -0.2161462511289578 -0.2168647431091947
272 -0.3471246010642311 -0.3517128617325329 -0.07617462981800864
273 0.2842374169800968 -0.3978563036089542 0.1044961839834465
274 0.3054800295484236 -0.3943446980594131 0.03426675735351312
275 0.2513299935068113 -0.4302981873478304 0.04094758025863802
276 0.1841058918055705 -0.4632481360769188 0.03880959963380282
277 0.219272344738426 -0.4367373850402195 0.1057359699494163
278 -0.01318076330059817 0.4236287913693632 0.265263858453703
279 -0.02884741823555154 0.4522553250968307 0.2112651116079112
280 0.03976282011669269 0.4394198894712665 0.2352213401743716
281 -0.07723025969280636 0.4173478836026879 0.264303293661163
282 0.3262794839987408 0.07639518980041543 0.3710868810627425
283 0.2651610765450056 0.05396603142324227 0.4204488921830087
284 0.2501753526136978 0.1118423797868421 0.4182147475020791
285 -0.2612119156086412 0.4016818226301964 0.1428987351677669
286 -0.2822929547649434 0.4036476424991223 0.08590266814819188
287 -0.310663516335866 0.3649819874697663 0.1423949733679336
288 0.4325071579012694 -0.2506961983149685 -0.009432630311236929
289 0.4487630628763634 -0.2113056229636268 0.06294161661237119
290 0.4627091502092622 -0.189473158409778 -0.0004056536029428161
291 0.1644672959457272 -0.4599074702773757 0.1069374927112348
292 0.1710735329663401 -0.4385644122773047 0.1685084644825798
293 0.1076221034128207 -0.468995425583729 0.1358704295957623
294 0.1156334836421708 0.4785085140747654 0.08751285287736818
295 0.1299011172554587 0.481774488928433 0.03192243025727745
296 0.1723909605608649 0.4643773520768544 0.06808106634734476
297 0.07269396453990058 0.4918019163978961 0.0533522496885416
298 0.1091728949868402 -0.3819095495146245 -0.3036879566096242
299 0.2452835878164892 -0.4001818694094541 0.1723091203152789
300 0.2946357046574836 0.3491843221845142 -0.2031258493681429
301 0.2367828405970133 0.3777594488414825 -0.2263441742342593
302 0.3096246778530519 -0.306206984114826 0.2457027507857747
303 0.2863666645256797 -0.3523773999975722 0.2093425456503953
304 0.2616550142860691 -0.3339525231467133 0.2645984992075748
305 0.2416365632575374 -0.3738578372968622 0.2276885785207485
306 -0.4310886488202281 -0.2039723519592495 -0.1501927311642018
307 -0.4303684976766894 -0.1506054577410819 -0.205185165901701
308 0.4112581558854983 -0.1752341542393987 0.2239636586718074
309 0.4243683183719116 -0.1053550452577143 0.2425115353976814
310 0.4531787099736216 -0.1267522031084165 0.1690057272219109
311 -0.03195524597952386 -0.3703035154483099 0.3344460624689898
312 -0.09312459642950319 -0.3753278220256726 0.3169492633739779
313 -0.07265046601616251 -0.3267777269891374 0.3714003593582634
314 -0.3328700864106799 0.3608658340991056 0.09472779609440558
315 -0.1245827429831941 0.4797844807438748 0.06546748955102707
316 -0.2236697420757765 0.4443249872249804 0.05046931946516232
317 -0.315673692692267 -0.1272951844220986 0.3662595469949856
318 -0.3452890119147242 -0.1726265325638545 0.317766547178796
319 -0.4783849133269872 -0.1001356798078361 0.1054548260183167
320 -0.4714987402744765 -0.06595531988703773 0.1527705262744759
321 -0.4581962200720013 -0.1395073390070816 0.1435058405602131
322 -0.4610556738437941 -0.1743761829632987 0.08378909494436074
323 -0.3034340816122494 -0.1909053515542945 0.3485439783787148
324 -0.259714417152087 -0.3808952595840407 -0.1935645183130367
325 -0.3488323928672888 -0.2748150016116174 -0.2297665697521904
326 -0.2632966280275107 0.3747140656529277 0.2006595491652369
327 -0.1945906526950845 0.4048045920611115 0.2196991582367537
328 0.4396916141564988 -0.191373428833038 0.1415891774717923
329 0.4010649794994244 -0.2408685395808067 0.1764347722512079
330 -0.1347223272648859 -0.4392719788632731 -0.1972055352211927
331 -0.0458541860118656 -0.4450682839416944 -0.2231851613669343
332 -0.08617260110336544 -0.4143039274053032 -0.2663203682702875
333 -0.1137569261742592 0.4707647735372849 -0.1242573528760896
334 -0.158620584003132 0.4398143336693757 -0.177208527530332
335 -0.1576146366471188 -0.394837547245725 -0.2631747282692177
336 -0.196984160303429 -0.4044595810451173 -0.2181964433494762
337 -0.4552816644570004 0.06949987677809576 0.1946493594571861
338 -0.4689966982318322 0.1162657117696673 0.1285471948909518
339 -0.4342745395476507 0.1342146591198612 0.2083075840626439
340 0.1772406251076017 0.3334139037679135 -0.3277513227825437
341 0.1385253594391791 0.4315854837880881 -0.2110561417624423
342 0.1771581377578405 0.3939508230052726 -0.2518287975582666
343 -0.4322772707409427 0.1894779539680499 0.1650286828428418
344 0.3726810811163465 -0.3027598608433585 0.1394463281698779
345 0.3137353013163044 -0.3596057704503902 0.1491772454724544
346 0.3299229707083141 -0.3227902442052711 0.1922427934797619
347 -0.1864315892653583 -0.4472645919370471 0.1232787383265234
348 -0.1225919421529566 -0.4747717739893275 0.09779048185888553
349 -0.1868877365036109 -0.4590995158879969 0.06557902451213951
350 -0.02273254447562935 -0.1879954541659437 -0.4627536500500067
351 -0.09196742535120504 -0.179210388870572 -0.4576304504675458
352 0.2201725031297375 -0.4487134275695382 -0.01342865534528511
353 0.2798858149024417 -0.4136341404242265 -0.02388992448517614
354 0.1691382697423517 -0.468809453232898 -0.04012408588410138
355 0.3400579711774188 -0.3568406784847781 0.08381710098315849
356 0.4001257193968168 -0.2947465502759281 0.05498981521718058
357 -0.2151735578443572 -0.4163658620901918 0.1741832623718261
358 -0.2488436332812087 -0.420998159266978 0.1041028148957728
359 -0.06561383682969391 0.4917148607254475 -0.06254054811272525
360 -0.03513763759878164 0.2440174059630335 0.4349952321704789
361 0.01205397744823147 0.1784290274185539 0.4669237451684659
362 -0.3326058566867843 0.3192431418922815 0.1935385244657893
363 0.04824294494999085 -0.1865894579340762 -0.4613642730537549
364 0.07919660216580804 -0.1348274988023904 -0.4749204604689949
365 0.01586608990323352 -0.1279303243674187 -0.48309636647198
366 -0.0846492308663913 -0.06666202782020045 0.4882526822871813
367 -0.04505595696578566 -0.01195711821196615 0.4978222454510871
368 0.02707048284893738 0.4701106308835291 -0.1681165776733981
369 -0.4043427669165114 0.1898814258600812 0.2246151619006211
370 -0.3866421016268323 0.2510653978797122 0.1935821562982706
371 -0.364753252828033 0.2130615127997473 0.2675067406904957
372 -0.3449339865111338 0.2743856015691528 0.2360785602316972
373 0.2016151789989495 0.4154948264043867 -0.1916125487237465
374 0.2600045358285818 0.3922060051935493 -0.1690328099473039
375 0.2244804213628139 0.4237830879255125 -0.1414794501441494
376 0.2300618034454011 0.4357112973022844 0.08501312838973735
377 0.2876770188997665 0.3950421111927968 0.1057528400624845
378 0.2187280000170991 0.416936964091576 0.1682903145835191
379 0.1666795735983852 0.4548898663591913 0.1236653922032257
380 0.3900380395001934 -0.3118437067651514 -0.02497659492036162
381 -0.3996746500429356 -0.2404198045812868 0.1801624036200473
382 -0.3802913682038037 -0.2838030790915417 0.1575889830154354
383 -0.4166440191607351 -0.2515108579827151 0.114673665740603
384 -0.04002004941606525 0.1905579285510905 -0.4605280355320979
385 -0.1173844370859222 0.1927345654822537 -0.4461774100045721
386 -0.4673390055913307 -0.0007965339319288047 0.1777459405629322
387 -0.3133134356033664 -0.2591512890736757 -0.2909902067800003
388 -0.4406941858041696 -0.1258757153625601 0.1998597980594491
389 -0.4329403219954305 -0.1896660488571681 0.1630627716598833
390 0.3009666595211949 0.326641501719234 0.2296179418322026
391 0.3508640455253534 0.3131981321197919 0.1697096096108175
392 0.3561575124802248 0.2709446530470212 0.2230265035575992
393 0.2880547891585573 -0.1704449545081649 0.3714471105359802
394 0.2345516542673959 -0.1499592137707536 0.4153284913001821
395 0.2936438460297259 -0.09564787772384518 0.3932235689474818
396 0.2521058078274327 0.3695767622225858 0.2232838518226246
397 0.2967068514186607 0.3633516711256323 0.1730335441798357
398 0.2135936646136565 0.2922684836948366 -0.3449012610525363
399 -0.01705731632146982 -0.4487981584655522 0.2197481761422343
400 0.2600604511708522 0.2598982148104412 -0.3388531830677684
401 0.05155821600992148 0.06095236913604191 -0.4935854121209195
402 0.06258811227389205 0.124963614499957 -0.4800696025089454
403 -0.03181911426848575 0.4796048248018489 -0.1377198460424528
404 -0.1475363807001948 0.4037571451708822 0.2553687218383378
405 -0.1749106262718858 0.3461018260140025 0.3156260427261189
406 -0.1248681170719596 -0.2203786476739114 -0.4310930351888341
407 -0.1658913874860903 -0.1631428732128782 -0.4425657583656767
408 -0.1031512091112348 0.3740521462324612 0.3153487275347401
409 -0.4394189151190989 0.2257754484847189 -0.07704845162025092
410 -0.4643670279246627 0.1817041746086382 -0.03669954095365532
411 -0.4610871304212393 0.1549917221584801 -0.1156556277154536
412 -0.2653780340018996 0.423694060817326 0.007605386079005243
413 -0.3033706224675645 0.3959189109977722 -0.03484940943517718
414 -0.486881104044937 0.100223746995226 -0.05387013144795791
415 -0.332781826195248 0.3660060730997919 -0.07277232034383382
416 -0.3639826515627477 0.342502541965482 -0.01444431059395325
417 -0.4025108739802287 0.2826510590056555 0.08996318786400284
418 -0.3690485374140083 0.3317583242816298 0.06115219785442112
419 -0.3689882497896706 0.3109983425017099 0.1308728485146739
420 -0.416809972105912 0.245649076829344 0.1261981703748508
421 -0.4328127350010396 0.2418472745002832 0.06467636537178389
422 -0.4529011493108068 0.1859870657183524 0.1014364842570346
423 0.2407399817600376 0.3364362708890407 0.280811140826807
424 0.2975448465542212 0.277505545115136 0.2906161329303247
425 0.0001876105834799649 0.2616835094492672 -0.4260536417924207
426 -0.4826158581467849 0.06911112821480306 -0.1109305432336804
427 0.3336643185020819 -0.1872131126098368 0.3218996319126162
428 0.3401066746141181 -0.1208397772742581 0.3460132918129506
429 -0.4108154959469086 0.2814353747633593 -0.04499731238310809
430 0.3360010467372426 -0.05629731256190465 0.3659698200532177
431 -0.06973471504156656 -0.4784998170107511 0.1271809523425157
432 -0.01204818019970525 -0.4752848240401852 0.1547875233698297
433 -0.002817302406548555 -0.4946803106391098 0.07268736529235256
434 -0.4026881255423874 0.2953599917431761 0.02459164135696069
435 0.4783130927184314 0.1428176074673271 -0.02863068863017052
436 0.4681183291984146 0.1746804761748816 0.01876062663669139
437 0.4498115688883542 0.2109807066922866 -0.05618446313546833
438 0.4350077973606413 0.2454739409830242 0.0226000118076521
439 -0.3224137770440794 0.3800683259969955 0.03996778635366512
440 0.3559664018933568 -0.2761105623601683 0.2169121436809124
441 0.1355926394900181 -0.1314494131651086 -0.4629640244065176
442 0.03609489237581164 0.4680922878816807 0.172008048561898
443 0.09908971681921958 0.4491170796595059 0.1961506481732952
444 0.04980577370961847 0.05094702419930149 0.4948977527029417
445 -0.4325864981502178 -0.09184858365879303 -0.2333082923901449
446 0.03273941236788052 0.1989924671391768 -0.4575260964138215
447 -0.06699368778011094 -0.4906094288345637 0.0693846822882702
448 0.05105946902069183 -0.4814148345551018 0.1250307469929257
449 0.3723921966413615 -0.2155966633889055 0.2546411801264527
450 0.3861219445086057 -0.1477095863910197 0.2812325053351534
451 -0.4486534936151794 -0.02996553660322394 -0.2186598026226471
452 -0.4553107477842503 0.02785949974832499 -0.204733903459881
453 -0.4162940795144828 -0.05371140461806243 -0.2716879172417211
454 -0.4401330202464905 0.07874267060574472 -0.2237912337750915
455 -0.4050622544255707 0.110590705243141 -0.2714668781886641
456 -0.2404888603471735 -0.4360191143473481 0.04530386266834022
457 -0.4988297416728327 -0.03338725246151292 0.007360719780442185
458 -0.4865727545049006 -0.1059075086610799 0.04506167088243702
459 0.184994669869276 0.3876388885601937 0.2559551995873015
460 0.1491814226429431 0.4375415698818996 0.19053156631779
461 -0.2001018679878488 0.06475984904071591 0.4536137171426777
462 0.3247218853037246 -0.2501351550990164 0.2863356446347289
463 -0.3974551291997398 0.2166350352114523 -0.2123645021931654
464 -0.4197756960889048 0.2250537544331283 -0.1521156553042081
465 -0.4353962298896156 0.1477237050558787 -0.1964887527632885
466 -0.4183936448105742 -0.2529495275578403 -0.1047057519450982
467 -0.3948606392444173 -0.3011814715728167 -0.05809300092715755
468 0.192032099511295 0.06289553750365952 0.457348689863008
469 0.4763351119377476 -0.1248815602439741 -0.08665712345955251
470 0.4833430808072722 -0.06574439008596947 -0.1098050154043916
471 -0.335046492368758 -0.3287417746217892 0.1722576371889168
472 -0.08523825692753675 -0.2643760822470901 0.4157399748540367
473 0.3118371659764287 0.3684149513204603 -0.1304914003271177
474 0.05575103556769807 -0.4940008461475934 -0.05343206938338642
475 -0.004381715714027526 -0.4945194783959362 -0.07369725947694782
476 0.1311251517734003 -0.4773056765836868 0.07060797174109809
477 0.2293909753810443 0.179320454019321 -0.4064774965284521
478 0.2747618066543269 0.2064516862021332 -0.3631578869697672
479 0.2151138224351162 0.2441592514968119 -0.3796212629791301
480 0.2108359991970836 0.4531584957202318 0.01398424825094506
481 0.2595906533749798 0.4256559508596726 -0.03781142919937128
482 -0.439179147470443 0.2390012673121604 -0.0002658012720687666
483 -0.4620406313791899 0.1877808135690256 0.03545167147081307
484 0.3770968042364847 0.1782921698022404 0.275698934386478
485 0.4133625231096371 0.1294897269409027 0.249727521721586
486 0.2832468636027826 -0.3510380568410376 -0.2157394189953592
487 0.2743245752068535 -0.386063370211736 -0.1603156312351838
488 -0.07716146995651645 -0.4682724619748125 -0.1573753758063738
489 -0.1368651785175708 -0.4628980259098132 -0.1303585076554322
490 -0.1970895461969241 -0.4297737608299316 -0.1626352522732611
491 0.470947450984572 -0.1379786687528129 0.0957621291551925
492 0.4174447003919449 -0.2498256977487945 0.115442812071637
493 0.3752867001215645 -0.3210587206947123 -0.0779819888034517
494 -0.0657023588544136 0.4909690253725418 0.06806332467417578
495 -0.02116211672111416 0.4995467228489448 -0.002288341487066687
496 0.103199372658184 0.468490061195047 0.1409501757516406
497 0.4208607658454502 -0.05120299636690783 0.2650555959323092
498 0.3847188228965232 -0.06861204782423483 0.3119035334882863
499 0.02647653618516499 -0.1726684500464062 0.4684918349237341
500 0.04792365811786704 -0.2407746573222688 0.4355810916281213
501 -0.01361162890528445 -0.282161022321649 0.4125528827204419
502 0.4765809182141149 -0.1456641310326785 0.04065205191236679
503 -0.3348378096800563 0.3450126952333037 -0.1372948700298517
504 0.0859302655575802 0.203161633209266 0.4487107534402841
505 -0.4836226798057959 0.1265694480594883 0.009448724537048576
506 -0.4972641986064271 0.05223328207972276 3.205445234611939e-05
507 0.2776927977945622 -0.2849467628380052 0.3028069556684094
508 -0.2258278111552628 0.4136816815040772 -0.1669409060020407
509 0.1852287686826933 -0.406643140049358 0.2243471860824011
510 0.04936252159579494 -0.4973832641475693 0.01316168711123111
511 -0.002093655724004796 -0.4999099151165878 -0.009257071558289441
512 0.07617918470994875 -0.4892193881827967 0.06972174727427299
513 -0.04657422683195072 -0.4974868468886313 0.01837603242850774
514 -0.4600153477624824 -0.08208748613356498 -0.1778975110653158
515 -0.0692303995236828 -0.4560047239193167 0.193046221265942
516 0.04478092765607021 -0.4628206089061734 0.1838253314697969
517 -0.3342897724152273 0.2194639472442271 -0.3001431723670532
518 -0.3853430288746642 0.1842783815289104 -0.2599081149152237
519 -0.4894601594746018 0.0847497486361188 0.05697571757522765
520 -0.4642974302081471 0.08018215068289387 -0.167328177585177
521 -0.3108689604758704 -0.3709894300188167 -0.1254086608929592
522 -0.2371726808528752 0.3876042948604502 -0.2085953740205984
523 -0.1870332461069683 0.4136214620798371 -0.2096088045804092
524 0.3847181110026761 0.2768753300998762 -0.1591603802729097
525 0.3664113830526298 0.3279420527648007 -0.09053567472476039
526 0.3429296351402045 0.3182933544537286 -0.176319612786551
527 -0.421766141245417 0.07981658649720788 0.2564032656166545
528 -0.1426390290427589 -0.4765647954469086 -0.05039943585383824
529 -0.06982045176388423 -0.4858317735905897 -0.09535508526192582
530 -0.2978394476851285 -0.3256876813314502 0.2349876542109421
531 -0.2785622464880944 -0.2904643515783263 0.2967044578257775
532 -0.3334837805556624 -0.2660674154313891 0.2607617658936283
533 -0.477533344162427 -0.002075033164426894 -0.1481809685837408
534 -0.4954404734276162 0.008565241943802105 -0.06682345336978394
535 -0.3116339699450714 -0.3760173197432418 0.1072158758271507
536 -0.2409072279679737 0.3265674837161808 -0.2920914002364135
537 -0.2971231510129802 0.2918309330001915 -0.2766812962170654
538 -0.2672622852127989 0.2605508371137589 -0.3326922484551632
539 0.4830340085187496 0.08311328252081067 0.09884497398919406
540 0.4709893646844336 0.1447996552233756 0.08486505877771593
541 0.4127053350849457 0.2105929605994521 -0.1879492254263909
542 0.2044860862338858 -0.4264367887982478 -0.1622871088416652
543 0.3083431162972277 -0.3145389476956023 -0.236621581886897
544 -0.2747458506178084 0.2232212714789665 0.3531104381459297
545 -0.334398726209777 0.1864324125905044 0.3215904965090893
546 -0.3486332395391214 0.1203517943878132 0.3375948901806589
547 -0.4620229149151465 -0.1375711927947993 -0.1326988809535613
548 0.3498372269645572 -0.2681394912875339 -0.2360405216097683
549 0.3536955748191442 -0.2137736351506927 -0.281425431096434
550 0.2821521458986258 -0.2352003940671709 -0.3392210801165637
551 0.2493182210342784 0.04821691353413565 -0.4307151656368097
552 0.2375162122075209 0.1059089377221392 -0.4270472407698707
553 0.336512376817179 -0.1693337098639396 -0.3287636156154876
554 0.10608682276931 -0.4354241747150122 0.2217010918071077
555 -0.3644684249454792 0.06640012512440546 0.3357883121867479
556 0.04155889238928365 -0.4283658122887899 -0.2545104896178961
557 0.02867861883232125 -0.3810705879781542 -0.3224325414716298
558 -0.0214822535531688 -0.4165138848479463 -0.2757801597489368
559 0.08694260073955382 -0.4502932110710592 -0.1991908839278472
560 0.08099065669436005 0.2408174085707527 -0.4306361448572141
561 -0.2827972727686561 0.1314157148377423 -0.3908396249208817
562 -0.315589264384864 0.05356805106527537 -0.3841013930072221
563 -0.1219127075125833 0.3183960123531025 0.3657338801158491
564 -0.02896200662169703 0.3913917342194134 0.3097962436137096
565 -0.05495988798933289 0.3450306487891481 0.3576775952003977
566 -0.3136799630344927 -0.01898831704506012 -0.3889014330218848
567 -0.3284402794556603 0.1132234222583775 -0.3595934363738983
568 -0.148641817198777 0.4348974014083832 0.1969006359260451
569 -0.09469181444908195 0.4480247888434288 0.2007666527542404
570 0.3902881193511548 0.06782747103339207 0.305081330249088
571 0.362000794671496 0.137993844920909 0.3160903722373549
572 -0.1901558642583715 -0.2198044917759865 -0.4068497667238511
573 -0.1309189365413058 -0.2678214548082453 -0.4014123819705722
574 -0.06088453571267119 -0.2455641115554371 -0.4312671334880984
575 0.03980984328620044 0.3546874335821377 0.3501599646396555
576 0.04743981204299884 0.4014827871235629 0.2942125692026443
577 0.007088098606316907 -0.2391047473188168 -0.4390656883289241
578 0.2855753459425125 -0.2375554651731974 0.3346851098512752
579 0.2239491636442094 -0.2331394650184827 0.3814351346611306
580 0.2410077440275458 -0.2747479003060624 0.3412167325852631
581 0.07248081546321249 0.2946650664946961 0.3973902741354701
582 -0.0009225094365416022 0.3091214924116606 0.3929924323769188
583 0.1204238901320128 0.3195893639202735 0.365185877539792
584 0.04133500789952609 -0.3776190472571727 0.3251080932098297
585 0.06992945435645342 -0.4096720966033583 0.2779903679590668
586 0.4811059443983174 -0.1349348011082329 -0.01815680903916491
587 0.008910798455396583 0.4957275361082939 -0.06461275117875323
588 0.06044326335616328 0.4963287190288018 -0.00210109068966017
589 -0.3899545779276361 0.1469520230308316 0.2762979009699949
590 0.2249838418072879 -0.2290325090562965 -0.3833097712308032
591 0.1765519037973724 -0.2942629727779143 -0.3636464328402354
592 0.040296398426941 0.2491283445767722 0.4316378901373862
593 0.3125255920380232 0.3866007578763715 -0.05355005444159933
594 0.1911287493329386 0.2275734275329828 0.4020946856889766
595 0.1840815245058485 0.2775846410678373 0.3729085134169541
596 0.2510379233163733 0.2332499571870155 0.3641077018263389
597 -0.02313441171821537 0.3132943278711106 -0.3889877416040782
598 -0.3234110344941312 -0.07978886288033757 -0.3728793908594286
599 -0.2860463107669596 -0.1468039414096575 -0.3829178905238064
600 -0.3230964923856285 -0.2273424562058824 0.3064703317033804
601 -0.3879763497355254 -0.1916380860830226 0.250497896215384
602 0.05864669341394167 0.3009247178374251 -0.3949745302498342
603 0.1438876212718863 0.2921517910742029 -0.3793991083501034
604 -0.07485315229310111 0.2918665306164699 0.3990124482991615
605 -0.1284761231569753 0.2422814472646637 0.4180832286637359
606 -0.474962033024408 0.1413901788251124 0.06648221203543013
607 0.2956490668999508 0.1554120521660695 0.3720735455292667
608 0.3293411177899713 0.2051813224892817 0.3153332412455142
609 0.115918668455312 -0.4863766248625282 -0.0008006815115847124
610 -0.02398532173299535 0.05380892457108796 0.4965171739002264
611 0.05013486116539882 0.4853514887379551 0.1091807129294217
612 -0.03551943316112321 0.4798393541337532 0.1359873674001193
613 0.228113834847508 0.2994274988142993 0.3291006704717823
614 0.04640294297383907 -0.2931073318517015 0.4024113056291326
615 0.09306662022083691 -0.2756232283251308 0.4066576449647827
616 0.1177320383640831 -0.2280649988022372 0.4290985008875859
617 -0.24807672781297 -0.213663260781816 -0.3778967426555715
618 0.006581348138158334 0.4959134415259724 0.06345505787996929
619 0.2971121889100434 0.06168290829223122 -0.3973909485955799
620 0.3575216824884883 0.2280945832837421 0.2648605437342764
621 0.1147052588036405 0.3767364483463474 0.3080784836533862
622 0.3875476677694785 0.05605903559874705 -0.3109086517518874
623 0.1680803755836474 -0.1956654285985733 0.4283270098826323
624 0.1500625275475566 -0.2646474302359617 0.3967908460329455
625 -0.3595088240027599 -0.2756072627708506 0.2116460303717315
626 0.3489024302610173 -0.0973316287034731 -0.3446645444658983
627 0.398090998616904 -0.05591850220259943 -0.2973157882313249
628 -0.2795361777464312 -0.3751664596273693 0.1763792870537271
629 0.4364286731816714 -0.1296735366383747 -0.2066755600466148
630 0.4570795253117881 -0.0714138670883482 -0.1896796434207906
631 -0.3583416865513869 0.1497646113160238 -0.3148996616017044
632 0.45245400390598 0.07008316618286164 -0.2009321382139574
633 0.4920857883528153 -0.07933757477113246 0.03946043753714903
634 0.4934347712443877 -0.06981252560986308 -0.04059972653813027
635 -0.1952912933069365 -0.460269631084917 0.003630077059578576
636 -0.2530732615832643 -0.2610820847519791 -0.3432055787617229
637 -0.1933699573621423 -0.2687207637085939 -0.3746961578954785
638 -0.2985331285837814 -0.2014968991473911 -0.3468097039760645
639 -0.1783278797259432 0.2924547872240876 0.3642380605348145
640 -0.2103777111912972 0.2471684421145104 0.380327463978868
641 0.4156133652408991 0.2545301444964067 -0.1117136346905484
642 -0.07373735676091477 -0.2982126994794411 -0.3945022028925798
643 -0.008194205304949728 -0.289599959792414 -0.4075103904045301
644 -0.2507616181582425 0.2000635801930299 -0.383527280306117
645 0.3331905111868866 -0.354225428881688 -0.1162257664573796
646 0.3339043003219562 -0.3698968374726946 -0.04103958886494548
647 0.2064856268506716 0.4495684322758554 -0.07247006695950298
648 0.1396161727726156 0.479162148061062 -0.03018211665599465
649 -0.1442433767902099 0.2919979016593656 -0.3793824899473947
650 -0.2001992661302973 0.2533577143617867 -0.3817461491806586
651 -0.3896277617109686 0.09627353234908974 0.2981972740873555
652 0.2243730521944663 -0.06499109635159156 0.4420779239500175
653 0.1104498175946643 0.4171969814364357 0.252482705296089
654 0.4052850601208093 0.2909075199948132 -0.03341907918149968
655 -0.2140611093991534 0.1842475560013465 0.4125902077732024
656 0.1928273365747554 -0.121634786365366 -0.4449973000090425
657 0.3354577231630403 -0.322728240826781 -0.1825228712877381
658 0.00762756715373075 0.3525669260601816 -0.3544550505604198
659 0.09521236144037408 -0.3235790573750357 0.3690951095005607
660 0.008608225207113955 -0.3337641741168799 0.3721926578196575
661 0.03358552390607963 -0.3243318254009115 -0.3790526079795083
662 0.1045356977141588 -0.3231651543849423 -0.366928563748818
663 -0.04351826085879869 -0.3450873270289588 -0.3591947907415056
664 0.1607983399964744 -0.3379772439515429 -0.3315347288374138
665 0.3566695920833028 -0.3501151392874926 0.01435936366382799
666 -0.1887397839045827 0.3142264111534118 -0.3400574311867018
667 -0.2055490456161143 -0.3055794219488419 -0.3381875318927595
668 -0.1355504993904247 -0.3238071639756412 -0.3560547467357494
669 0.3412698539653504 0.3468200897224768 0.1151117376263668
670 -0.137271460721294 -0.4505024321807625 0.16794077727181
671 0.1264669735843867 0.2565412966281331 0.410112993840432
672 0.2670793508705361 0.4100187346294891 -0.1027290494037868
673 0.02593067527742733 0.02629158163553208 0.4986344881922617
674 -0.3098673400402914 0.1821338533740386 -0.3475765973587386
675 -0.1067953639699575 -0.3722771260950284 -0.3162348678133874
676 -0.04641710721384303 -0.3900954234303313 -0.3093073112239818
677 0.4569137328675863 -0.05938070835312653 0.1941745920363654
678 0.4815724964736312 -0.06379816865045107 0.1183964708806942
679 0.3844816938432892 -0.2196259152011699 -0.2322461721351802
680 0.1769487642619481 0.3388252121722137 0.3223144589102758
681 0.3793412538042161 0.3017685678128846 0.1226211427218232
682 -0.06391019299015892 -0.4948276732110795 -0.03257393216161997
683 -0.1148701956338136 -0.4863024002956813 0.0177429879588617
684 -0.1824845309811831 -0.3468667040638005 -0.3104559317592329
685 0.03122901662545271 -0.4358175876550351 0.243079778696528
$EndNodes
$Elements
1366
1 2 2 1 1 22 24 23
2 2 2 1 1 22 23 25
3 2 2 1 1 26 28 27
4 2 2 1 1 1 29 21
5 2 2 1 1 26 27 30
6 2 2 1 1 31 33 32
7 2 2 1 1 34 36 35
8 2 2 1 1 37 39 38
9 2 2 1 1 40 42 41
10 2 2 1 1 41 42 43
11 2 2 1 1 38 39 44
12 2 2 1 1 45 47 46
13 2 2 1 1 48 50 49
14 2 2 1 1 51 53 52
15 2 2 1 1 48 49 54
16 2 2 1 1 55 57 56
17 2 2 1 1 58 36 59
18 2 2 1 1 59 36 60
19 2 2 1 1 61 63 62
20 2 2 1 1 61 62 64
21 2 2 1 1 65 67 66
22 2 2 1 1 68 2 69
23 2 2 1 1 69 2 70
24 2 2 1 1 65 66 71
25 2 2 1 1 55 56 72
26 2 2 1 1 73 74 5
27 2 2 1 1 75 77 76
28 2 2 1 1 78 42 79
29 2 2 1 1 76 77 80
30 2 2 1 1 43 82 81
31 2 2 1 1 83 85 84
32 2 2 1 1 84 85 86
33 2 2 1 1 87 89 88
34 2 2 1 1 87 88 90
35 2 2 1 1 91 93 92
36 2 2 1 1 94 96 95
37 2 2 1 1 91 92 97
38 2 2 1 1 4 99 98
39 2 2 1 1 100 102 101
40 2 2 1 1 4 98 5
41 2 2 1 1 103 12 104
42 2 2 1 1 105 107 106
43 2 2 1 1 108 110 109
44 2 2 1 1 109 110 111
45 2 2 1 1 104 12 11
46 2 2 1 1 112 114 113
47 2 2 1 1 115 117 116
48 2 2 1 1 118 120 119
49 2 2 1 1 121 38 122
50 2 2 1 1 121 122 123
51 2 2 1 1 124 125 72
52 2 2 1 1 72 125 55
53 2 2 1 1 126 29 127
54 2 2 1 1 79 42 40
55 2 2 1 1 79 40 128
56 2 2 1 1 119 120 129
57 2 2 1 1 130 132 131
58 2 2 1 1 133 135 134
59 2 2 1 1 130 131 136
60 2 2 1 1 137 119 138
61 2 2 1 1 139 141 140
62 2 2 1 1 142 144 143
63 2 2 1 1 142 143 145
64 2 2 1 1 138 119 129
65 2 2 1 1 146 148 147
66 2 2 1 1 149 151 150
67 2 2 1 1 152 137 153
68 2 2 1 1 154 156 155
69 2 2 1 1 154 155 157
70 2 2 1 1 152 153 14
71 2 2 1 1 158 160 159
72 2 2 1 1 161 163 162
73 2 2 1 1 128 164 79
74 2 2 1 1 165 167 166
75 2 2 1 1 159 160 168
76 2 2 1 1 169 171 170
77 2 2 1 1 169 170 172
78 2 2 1 1 173 175 174
79 2 2 1 1 174 175 176
80 2 2 1 1 32 33 177
81 2 2 1 1 178 180 179
82 2 2 1 1 181 182 178
83 2 2 1 1 183 169 172
84 2 2 1 1 184 169 185
85 2 2 1 1 186 136 187
86 2 2 1 1 185 169 188
87 2 2 1 1 189 191 190
88 2 2 1 1 21 29 192
89 2 2 1 1 20 21 192
90 2 2 1 1 69 157 193
91 2 2 1 1 157 69 154
92 2 2 1 1 181 178 179
93 2 2 1 1 194 195 176
94 2 2 1 1 196 98 99
95 2 2 1 1 197 199 198
96 2 2 1 1 51 52 200
97 2 2 1 1 197 198 201
98 2 2 1 1 195 194 202
99 2 2 1 1 203 205 204
100 2 2 1 1 206 203 204
101 2 2 1 1 203 206 207
102 2 2 1 1 185 208 184
103 2 2 1 1 209 210 35
104 2 2 1 1 211 213 212
105 2 2 1 1 214 216 215
106 2 2 1 1 217 219 218
107 2 2 1 1 218 219 220
108 2 2 1 1 216 222 221
109 2 2 1 1 215 216 221
110 2 2 1 1 223 225 224
111 2 2 1 1 70 3 226
112 2 2 1 1 3 70 2
113 2 2 1 1 216 227 222
114 2 2 1 1 124 228 125
115 2 2 1 1 125 228 229
116 2 2 1 1 230 232 231
117 2 2 1 1 231 232 233
118 2 2 1 1 234 160 235
119 2 2 1 1 160 234 168
120 2 2 1 1 236 53 237
121 2 2 1 1 144 239 238
122 2 2 1 1 238 239 240
123 2 2 1 1 112 113 241
124 2 2 1 1 242 244 243
125 2 2 1 1 234 245 168
126 2 2 1 1 246 248 247
127 2 2 1 1 112 249 114
128 2 2 1 1 102 249 250
129 2 2 1 1 251 161 252
130 2 2 1 1 253 62 63
131 2 2 1 1 254 256 255
132 2 2 1 1 112 250 249
133 2 2 1 1 257 248 258
134 2 2 1 1 246 259 248
135 2 2 1 1 258 260 257
136 2 2 1 1 261 263 262
137 2 2 1 1 261 262 264
138 2 2 1 1 133 134 265
139 2 2 1 1 133 265 89
140 2 2 1 1 266 89 265
141 2 2 1 1 79 267 78
142 2 2 1 1 268 270 269
143 2 2 1 1 109 111 271
144 2 2 1 1 272 248 259
145 2 2 1 1 273 275 274
146 2 2 1 1 276 275 277
147 2 2 1 1 278 280 279
148 2 2 1 1 278 279 281
149 2 2 1 1 273 277 275
150 2 2 1 1 282 284 283
151 2 2 1 1 282 283 18
152 2 2 1 1 285 199 286
153 2 2 1 1 285 286 287
154 2 2 1 1 288 290 289
155 2 2 1 1 17 282 18
156 2 2 1 1 277 292 291
157 2 2 1 1 70 154 69
158 2 2 1 1 292 293 291
159 2 2 1 1 294 296 295
160 2 2 1 1 294 295 297
161 2 2 1 1 38 44 298
162 2 2 1 1 299 292 277
163 2 2 1 1 202 139 300
164 2 2 1 1 300 139 301
165 2 2 1 1 302 304 303
166 2 2 1 1 303 304 305
167 2 2 1 1 211 306 271
168 2 2 1 1 271 306 307
169 2 2 1 1 308 310 309
170 2 2 1 1 311 313 312
171 2 2 1 1 312 313 145
172 2 2 1 1 287 286 314
173 2 2 1 1 315 92 197
174 2 2 1 1 197 92 316
175 2 2 1 1 188 318 317
176 2 2 1 1 247 248 257
177 2 2 1 1 319 320 31
178 2 2 1 1 31 320 33
179 2 2 1 1 319 322 321
180 2 2 1 1 318 323 317
181 2 2 1 1 324 213 268
182 2 2 1 1 268 213 325
183 2 2 1 1 326 48 54
184 2 2 1 1 326 54 327
185 2 2 1 1 310 308 328
186 2 2 1 1 328 308 329
187 2 2 1 1 330 332 331
188 2 2 1 1 333 88 334
189 2 2 1 1 330 335 332
190 2 2 1 1 330 336 335
191 2 2 1 1 337 339 338
192 2 2 1 1 140 340 227
193 2 2 1 1 214 215 90
194 2 2 1 1 90 215 87
195 2 2 1 1 216 214 341
196 2 2 1 1 216 341 342
197 2 2 1 1 338 339 343
198 2 2 1 1 188 317 185
199 2 2 1 1 344 346 345
200 2 2 1 1 347 349 348
201 2 2 1 1 350 351 156
202 2 2 1 1 190 353 352
203 2 2 1 1 190 352 354
204 2 2 1 1 355 356 344
205 2 2 1 1 357 358 347
206 2 2 1 1 24 91 333
207 2 2 1 1 333 91 359
208 2 2 1 1 360 164 361
209 2 2 1 1 361 164 128
210 2 2 1 1 326 285 287
211 2 2 1 1 326 287 362
212 2 2 1 1 363 365 364
213 2 2 1 1 156 365 350
214 2 2 1 1 350 365 363
215 2 2 1 1 355 344 345
216 2 2 1 1 366 127 367
217 2 2 1 1 366 367 41
218 2 2 1 1 43 366 41
219 2 2 1 1 214 368 178
220 2 2 1 1 369 371 370
221 2 2 1 1 370 371 372
222 2 2 1 1 341 214 178
223 2 2 1 1 373 375 374
224 2 2 1 1 226 364 365
225 2 2 1 1 66 67 192
226 2 2 1 1 214 90 368
227 2 2 1 1 66 192 126
228 2 2 1 1 192 29 126
229 2 2 1 1 376 378 377
230 2 2 1 1 379 378 376
231 2 2 1 1 271 307 109
232 2 2 1 1 105 21 20
233 2 2 1 1 271 111 325
234 2 2 1 1 288 380 234
235 2 2 1 1 381 383 382
236 2 2 1 1 52 385 384
237 2 2 1 1 52 53 231
238 2 2 1 1 231 385 52
239 2 2 1 1 320 386 33
240 2 2 1 1 325 111 387
241 2 2 1 1 320 321 388
242 2 2 1 1 388 321 389
243 2 2 1 1 383 223 382
244 2 2 1 1 390 392 391
245 2 2 1 1 155 156 351
246 2 2 1 1 393 395 394
247 2 2 1 1 396 390 397
248 2 2 1 1 390 391 397
249 2 2 1 1 398 340 141
250 2 2 1 1 97 359 91
251 2 2 1 1 273 274 355
252 2 2 1 1 59 366 58
253 2 2 1 1 399 229 228
254 2 2 1 1 58 366 81
255 2 2 1 1 296 294 379
256 2 2 1 1 366 43 81
257 2 2 1 1 296 379 376
258 2 2 1 1 140 141 340
259 2 2 1 1 398 141 400
260 2 2 1 1 196 99 401
261 2 2 1 1 356 380 288
262 2 2 1 1 196 401 402
263 2 2 1 1 356 288 289
264 2 2 1 1 359 403 333
265 2 2 1 1 404 327 54
266 2 2 1 1 405 404 54
267 2 2 1 1 406 407 351
268 2 2 1 1 404 405 408
269 2 2 1 1 409 411 410
270 2 2 1 1 93 22 412
271 2 2 1 1 412 22 413
272 2 2 1 1 410 411 414
273 2 2 1 1 167 416 415
274 2 2 1 1 417 419 418
275 2 2 1 1 46 47 208
276 2 2 1 1 418 419 314
277 2 2 1 1 417 421 420
278 2 2 1 1 420 421 422
279 2 2 1 1 423 424 390
280 2 2 1 1 94 425 384
281 2 2 1 1 385 94 384
282 2 2 1 1 426 414 411
283 2 2 1 1 427 428 393
284 2 2 1 1 167 429 416
285 2 2 1 1 428 395 393
286 2 2 1 1 430 395 428
287 2 2 1 1 431 433 432
288 2 2 1 1 434 416 429
289 2 2 1 1 435 437 436
290 2 2 1 1 231 233 385
291 2 2 1 1 436 438 118
292 2 2 1 1 436 437 438
293 2 2 1 1 413 416 439
294 2 2 1 1 413 439 412
295 2 2 1 1 440 346 344
296 2 2 1 1 440 344 329
297 2 2 1 1 346 303 345
298 2 2 1 1 26 364 441
299 2 2 1 1 1 367 127
300 2 2 1 1 1 127 29
301 2 2 1 1 345 303 299
302 2 2 1 1 365 154 70
303 2 2 1 1 154 365 156
304 2 2 1 1 70 226 365
305 2 2 1 1 280 443 442
306 2 2 1 1 51 193 53
307 2 2 1 1 193 237 53
308 2 2 1 1 193 157 237
309 2 2 1 1 280 442 279
310 2 2 1 1 337 338 177
311 2 2 1 1 33 386 177
312 2 2 1 1 106 444 105
313 2 2 1 1 109 307 445
314 2 2 1 1 236 230 231
315 2 2 1 1 418 439 416
316 2 2 1 1 200 68 51
317 2 2 1 1 68 200 401
318 2 2 1 1 418 416 434
319 2 2 1 1 402 401 200
320 2 2 1 1 384 446 200
321 2 2 1 1 200 446 402
322 2 2 1 1 439 286 412
323 2 2 1 1 200 52 384
324 2 2 1 1 412 286 316
325 2 2 1 1 433 431 447
326 2 2 1 1 432 433 448
327 2 2 1 1 337 177 386
328 2 2 1 1 308 450 449
329 2 2 1 1 450 427 449
330 2 2 1 1 451 452 75
331 2 2 1 1 75 453 451
332 2 2 1 1 75 452 454
333 2 2 1 1 67 20 192
334 2 2 1 1 77 75 455
335 2 2 1 1 358 456 349
336 2 2 1 1 347 358 349
337 2 2 1 1 32 457 31
338 2 2 1 1 226 3 74
339 2 2 1 1 31 457 458
340 2 2 1 1 74 3 4
341 2 2 1 1 459 396 378
342 2 2 1 1 460 459 378
343 2 2 1 1 82 42 461
344 2 2 1 1 316 92 93
345 2 2 1 1 43 42 82
346 2 2 1 1 316 93 412
347 2 2 1 1 449 427 462
348 2 2 1 1 463 464 251
349 2 2 1 1 227 340 222
350 2 2 1 1 464 463 465
351 2 2 1 1 466 212 467
352 2 2 1 1 105 20 468
353 2 2 1 1 469 235 158
354 2 2 1 1 467 212 272
355 2 2 1 1 158 470 469
356 2 2 1 1 466 250 306
357 2 2 1 1 20 19 468
358 2 2 1 1 160 158 235
359 2 2 1 1 131 132 354
360 2 2 1 1 382 223 471
361 2 2 1 1 354 132 190
362 2 2 1 1 60 36 472
363 2 2 1 1 190 132 189
364 2 2 1 1 473 300 374
365 2 2 1 1 131 474 136
366 2 2 1 1 136 474 475
367 2 2 1 1 291 476 276
368 2 2 1 1 277 291 276
369 2 2 1 1 477 478 148
370 2 2 1 1 477 479 478
371 2 2 1 1 477 150 479
372 2 2 1 1 480 264 481
373 2 2 1 1 233 96 385
374 2 2 1 1 482 483 421
375 2 2 1 1 482 421 434
376 2 2 1 1 376 377 264
377 2 2 1 1 301 139 140
378 2 2 1 1 301 140 342
379 2 2 1 1 264 480 376
380 2 2 1 1 484 485 138
381 2 2 1 1 486 487 37
382 2 2 1 1 175 146 147
383 2 2 1 1 138 485 137
384 2 2 1 1 488 489 330
385 2 2 1 1 330 489 490
386 2 2 1 1 289 491 328
387 2 2 1 1 289 328 492
388 2 2 1 1 437 218 220
389 2 2 1 1 260 490 489
390 2 2 1 1 343 422 338
391 2 2 1 1 420 422 343
392 2 2 1 1 380 493 234
393 2 2 1 1 97 315 494
394 2 2 1 1 97 92 315
395 2 2 1 1 495 97 494
396 2 2 1 1 400 478 479
397 2 2 1 1 479 398 400
398 2 2 1 1 496 379 294
399 2 2 1 1 99 3 401
400 2 2 1 1 3 99 4
401 2 2 1 1 443 496 442
402 2 2 1 1 472 36 34
403 2 2 1 1 472 34 142
404 2 2 1 1 497 498 309
405 2 2 1 1 450 428 427
406 2 2 1 1 461 42 78
407 2 2 1 1 60 499 59
408 2 2 1 1 309 450 308
409 2 2 1 1 60 501 500
410 2 2 1 1 502 289 290
411 2 2 1 1 268 325 387
412 2 2 1 1 387 270 268
413 2 2 1 1 503 167 415
414 2 2 1 1 68 401 2
415 2 2 1 1 401 3 2
416 2 2 1 1 366 59 127
417 2 2 1 1 127 59 126
418 2 2 1 1 53 236 231
419 2 2 1 1 107 255 504
420 2 2 1 1 161 166 503
421 2 2 1 1 505 410 414
422 2 2 1 1 505 414 506
423 2 2 1 1 503 166 167
424 2 2 1 1 507 302 462
425 2 2 1 1 508 25 23
426 2 2 1 1 384 425 446
427 2 2 1 1 78 243 461
428 2 2 1 1 508 23 334
429 2 2 1 1 462 302 440
430 2 2 1 1 309 498 450
431 2 2 1 1 509 292 299
432 2 2 1 1 509 299 305
433 2 2 1 1 462 440 449
434 2 2 1 1 433 511 510
435 2 2 1 1 61 236 237
436 2 2 1 1 461 243 47
437 2 2 1 1 512 433 510
438 2 2 1 1 433 513 511
439 2 2 1 1 451 445 514
440 2 2 1 1 514 445 307
441 2 2 1 1 399 515 432
442 2 2 1 1 399 432 516
443 2 2 1 1 517 518 252
444 2 2 1 1 46 317 210
445 2 2 1 1 330 490 336
446 2 2 1 1 185 46 208
447 2 2 1 1 488 330 331
448 2 2 1 1 488 331 186
449 2 2 1 1 185 317 46
450 2 2 1 1 107 504 361
451 2 2 1 1 429 165 409
452 2 2 1 1 338 519 177
453 2 2 1 1 520 454 452
454 2 2 1 1 258 521 324
455 2 2 1 1 490 258 324
456 2 2 1 1 522 523 266
457 2 2 1 1 522 266 162
458 2 2 1 1 336 490 324
459 2 2 1 1 524 526 525
460 2 2 1 1 82 47 45
461 2 2 1 1 45 209 81
462 2 2 1 1 81 82 45
463 2 2 1 1 164 267 79
464 2 2 1 1 526 300 473
465 2 2 1 1 409 482 429
466 2 2 1 1 342 341 373
467 2 2 1 1 342 373 301
468 2 2 1 1 525 526 473
469 2 2 1 1 329 308 449
470 2 2 1 1 329 449 440
471 2 2 1 1 337 170 527
472 2 2 1 1 337 527 339
473 2 2 1 1 489 529 528
474 2 2 1 1 489 528 260
475 2 2 1 1 358 246 456
476 2 2 1 1 502 491 289
477 2 2 1 1 57 531 530
478 2 2 1 1 530 531 532
479 2 2 1 1 74 4 5
480 2 2 1 1 241 534 533
481 2 2 1 1 533 534 426
482 2 2 1 1 535 246 358
483 2 2 1 1 536 538 537
484 2 2 1 1 152 539 137
485 2 2 1 1 137 539 540
486 2 2 1 1 82 461 47
487 2 2 1 1 363 364 26
488 2 2 1 1 540 119 137
489 2 2 1 1 541 176 195
490 2 2 1 1 541 174 176
491 2 2 1 1 474 510 511
492 2 2 1 1 130 542 132
493 2 2 1 1 189 132 542
494 2 2 1 1 499 66 126
495 2 2 1 1 59 499 126
496 2 2 1 1 486 121 543
497 2 2 1 1 38 121 37
498 2 2 1 1 544 545 242
499 2 2 1 1 242 545 546
500 2 2 1 1 121 486 37
501 2 2 1 1 409 410 482
502 2 2 1 1 514 547 241
503 2 2 1 1 514 241 533
504 2 2 1 1 451 514 533
505 2 2 1 1 451 533 452
506 2 2 1 1 123 549 548
507 2 2 1 1 123 550 549
508 2 2 1 1 419 420 370
509 2 2 1 1 419 370 362
510 2 2 1 1 551 98 552
511 2 2 1 1 552 98 149
512 2 2 1 1 25 163 503
513 2 2 1 1 549 550 553
514 2 2 1 1 292 554 293
515 2 2 1 1 293 554 516
516 2 2 1 1 176 175 147
517 2 2 1 1 147 194 176
518 2 2 1 1 555 184 244
519 2 2 1 1 555 244 546
520 2 2 1 1 518 465 463
521 2 2 1 1 451 453 445
522 2 2 1 1 455 465 518
523 2 2 1 1 75 454 455
524 2 2 1 1 556 558 557
525 2 2 1 1 465 455 454
526 2 2 1 1 421 417 434
527 2 2 1 1 559 44 39
528 2 2 1 1 217 11 10
529 2 2 1 1 193 51 68
530 2 2 1 1 425 560 446
531 2 2 1 1 560 151 446
532 2 2 1 1 446 151 402
533 2 2 1 1 561 230 562
534 2 2 1 1 562 230 64
535 2 2 1 1 230 236 64
536 2 2 1 1 407 63 155
537 2 2 1 1 407 155 351
538 2 2 1 1 370 420 343
539 2 2 1 1 63 157 155
540 2 2 1 1 68 69 193
541 2 2 1 1 559 39 130
542 2 2 1 1 408 405 563
543 2 2 1 1 408 565 564
544 2 2 1 1 408 563 565
545 2 2 1 1 80 562 566
546 2 2 1 1 80 77 562
547 2 2 1 1 77 567 562
548 2 2 1 1 546 244 242
549 2 2 1 1 568 569 201
550 2 2 1 1 570 571 282
551 2 2 1 1 406 573 572
552 2 2 1 1 574 573 406
553 2 2 1 1 565 575 564
554 2 2 1 1 564 575 576
555 2 2 1 1 25 503 415
556 2 2 1 1 25 415 413
557 2 2 1 1 413 22 25
558 2 2 1 1 363 30 577
559 2 2 1 1 26 30 363
560 2 2 1 1 578 393 579
561 2 2 1 1 17 570 282
562 2 2 1 1 580 578 579
563 2 2 1 1 6 83 84
564 2 2 1 1 6 7 83
565 2 2 1 1 575 582 581
566 2 2 1 1 575 581 583
567 2 2 1 1 320 388 172
568 2 2 1 1 551 5 98
569 2 2 1 1 311 229 584
570 2 2 1 1 229 585 584
571 2 2 1 1 16 570 17
572 2 2 1 1 495 359 97
573 2 2 1 1 290 586 502
574 2 2 1 1 495 588 587
575 2 2 1 1 495 587 359
576 2 2 1 1 368 90 403
577 2 2 1 1 403 88 333
578 2 2 1 1 88 403 90
579 2 2 1 1 559 186 556
580 2 2 1 1 157 61 237
581 2 2 1 1 61 157 63
582 2 2 1 1 371 589 545
583 2 2 1 1 50 371 545
584 2 2 1 1 558 556 331
585 2 2 1 1 590 122 591
586 2 2 1 1 590 591 27
587 2 2 1 1 360 592 582
588 2 2 1 1 360 361 592
589 2 2 1 1 504 592 361
590 2 2 1 1 556 186 331
591 2 2 1 1 447 431 348
592 2 2 1 1 262 593 264
593 2 2 1 1 62 566 64
594 2 2 1 1 566 562 64
595 2 2 1 1 371 369 589
596 2 2 1 1 369 339 589
597 2 2 1 1 594 596 595
598 2 2 1 1 425 94 95
599 2 2 1 1 597 425 95
600 2 2 1 1 62 599 598
601 2 2 1 1 321 322 389
602 2 2 1 1 598 566 62
603 2 2 1 1 593 481 264
604 2 2 1 1 153 485 570
605 2 2 1 1 571 570 485
606 2 2 1 1 600 318 601
607 2 2 1 1 318 600 323
608 2 2 1 1 602 603 560
609 2 2 1 1 560 603 150
610 2 2 1 1 479 150 603
611 2 2 1 1 143 238 531
612 2 2 1 1 571 485 484
613 2 2 1 1 575 565 582
614 2 2 1 1 604 605 360
615 2 2 1 1 483 606 422
616 2 2 1 1 483 422 421
617 2 2 1 1 360 582 604
618 2 2 1 1 607 282 571
619 2 2 1 1 607 608 596
620 2 2 1 1 607 571 608
621 2 2 1 1 131 609 474
622 2 2 1 1 18 395 430
623 2 2 1 1 430 17 18
624 2 2 1 1 474 609 510
625 2 2 1 1 354 609 131
626 2 2 1 1 112 241 547
627 2 2 1 1 444 106 610
628 2 2 1 1 601 532 600
629 2 2 1 1 306 250 547
630 2 2 1 1 112 547 250
631 2 2 1 1 611 612 442
632 2 2 1 1 595 596 613
633 2 2 1 1 596 424 613
634 2 2 1 1 424 596 608
635 2 2 1 1 614 615 500
636 2 2 1 1 616 500 615
637 2 2 1 1 98 196 149
638 2 2 1 1 614 500 501
639 2 2 1 1 599 62 253
640 2 2 1 1 253 572 617
641 2 2 1 1 253 407 572
642 2 2 1 1 226 441 364
643 2 2 1 1 149 196 151
644 2 2 1 1 226 74 441
645 2 2 1 1 590 28 86
646 2 2 1 1 590 86 85
647 2 2 1 1 618 612 611
648 2 2 1 1 552 477 148
649 2 2 1 1 18 283 19
650 2 2 1 1 528 257 260
651 2 2 1 1 370 343 369
652 2 2 1 1 369 343 339
653 2 2 1 1 619 552 148
654 2 2 1 1 494 612 618
655 2 2 1 1 194 147 478
656 2 2 1 1 424 608 620
657 2 2 1 1 385 96 94
658 2 2 1 1 400 194 478
659 2 2 1 1 619 148 146
660 2 2 1 1 621 575 583
661 2 2 1 1 575 621 576
662 2 2 1 1 146 622 7
663 2 2 1 1 146 7 619
664 2 2 1 1 623 624 579
665 2 2 1 1 623 616 624
666 2 2 1 1 616 615 624
667 2 2 1 1 393 578 427
668 2 2 1 1 187 136 475
669 2 2 1 1 238 143 144
670 2 2 1 1 323 600 238
671 2 2 1 1 531 238 600
672 2 2 1 1 173 9 8
673 2 2 1 1 625 471 530
674 2 2 1 1 372 362 370
675 2 2 1 1 597 602 425
676 2 2 1 1 7 627 626
677 2 2 1 1 8 627 7
678 2 2 1 1 471 628 530
679 2 2 1 1 45 46 210
680 2 2 1 1 209 45 210
681 2 2 1 1 628 56 530
682 2 2 1 1 517 252 537
683 2 2 1 1 580 579 204
684 2 2 1 1 579 624 204
685 2 2 1 1 587 588 179
686 2 2 1 1 517 537 538
687 2 2 1 1 629 117 630
688 2 2 1 1 117 9 630
689 2 2 1 1 383 381 389
690 2 2 1 1 429 167 165
691 2 2 1 1 389 322 383
692 2 2 1 1 631 77 455
693 2 2 1 1 499 60 500
694 2 2 1 1 71 499 500
695 2 2 1 1 518 631 455
696 2 2 1 1 19 283 468
697 2 2 1 1 284 282 607
698 2 2 1 1 570 16 153
699 2 2 1 1 153 16 15
700 2 2 1 1 284 607 256
701 2 2 1 1 632 219 217
702 2 2 1 1 217 10 632
703 2 2 1 1 632 10 9
704 2 2 1 1 586 633 502
705 2 2 1 1 634 633 586
706 2 2 1 1 107 254 255
707 2 2 1 1 633 634 12
708 2 2 1 1 635 349 456
709 2 2 1 1 13 633 12
710 2 2 1 1 210 317 240
711 2 2 1 1 317 323 240
712 2 2 1 1 89 523 334
713 2 2 1 1 523 508 334
714 2 2 1 1 540 539 103
715 2 2 1 1 617 637 636
716 2 2 1 1 636 638 617
717 2 2 1 1 84 86 73
718 2 2 1 1 49 640 639
719 2 2 1 1 49 544 640
720 2 2 1 1 436 540 103
721 2 2 1 1 460 378 379
722 2 2 1 1 497 15 16
723 2 2 1 1 460 379 496
724 2 2 1 1 268 269 324
725 2 2 1 1 336 324 269
726 2 2 1 1 335 336 269
727 2 2 1 1 460 496 443
728 2 2 1 1 411 520 426
729 2 2 1 1 253 63 407
730 2 2 1 1 410 505 483
731 2 2 1 1 482 410 483
732 2 2 1 1 300 301 374
733 2 2 1 1 249 458 114
734 2 2 1 1 541 524 641
735 2 2 1 1 541 641 220
736 2 2 1 1 361 128 106
737 2 2 1 1 107 361 106
738 2 2 1 1 89 334 88
739 2 2 1 1 133 89 87
740 2 2 1 1 371 50 372
741 2 2 1 1 437 220 641
742 2 2 1 1 373 182 375
743 2 2 1 1 108 109 453
744 2 2 1 1 108 453 76
745 2 2 1 1 516 448 293
746 2 2 1 1 516 432 448
747 2 2 1 1 574 643 642
748 2 2 1 1 574 642 573
749 2 2 1 1 561 644 232
750 2 2 1 1 232 230 561
751 2 2 1 1 448 433 512
752 2 2 1 1 373 341 182
753 2 2 1 1 457 113 114
754 2 2 1 1 534 241 113
755 2 2 1 1 113 457 534
756 2 2 1 1 71 66 499
757 2 2 1 1 178 182 341
758 2 2 1 1 645 493 646
759 2 2 1 1 191 645 646
760 2 2 1 1 209 58 81
761 2 2 1 1 236 61 64
762 2 2 1 1 58 209 35
763 2 2 1 1 36 58 35
764 2 2 1 1 191 646 353
765 2 2 1 1 411 465 520
766 2 2 1 1 415 416 413
767 2 2 1 1 647 480 481
768 2 2 1 1 647 648 480
769 2 2 1 1 6 73 5
770 2 2 1 1 75 76 453
771 2 2 1 1 647 181 648
772 2 2 1 1 404 281 569
773 2 2 1 1 569 568 404
774 2 2 1 1 569 281 279
775 2 2 1 1 649 96 650
776 2 2 1 1 95 649 134
777 2 2 1 1 649 95 96
778 2 2 1 1 166 464 165
779 2 2 1 1 251 464 166
780 2 2 1 1 589 651 546
781 2 2 1 1 555 546 651
782 2 2 1 1 546 545 589
783 2 2 1 1 608 571 484
784 2 2 1 1 608 484 620
785 2 2 1 1 102 466 467
786 2 2 1 1 101 102 467
787 2 2 1 1 102 250 466
788 2 2 1 1 291 293 476
789 2 2 1 1 512 476 293
790 2 2 1 1 19 652 18
791 2 2 1 1 652 395 18
792 2 2 1 1 650 96 233
793 2 2 1 1 293 448 512
794 2 2 1 1 224 259 246
795 2 2 1 1 212 521 272
796 2 2 1 1 521 212 213
797 2 2 1 1 653 576 621
798 2 2 1 1 280 576 653
799 2 2 1 1 263 654 262
800 2 2 1 1 438 654 263
801 2 2 1 1 605 655 267
802 2 2 1 1 605 267 164
803 2 2 1 1 164 360 605
804 2 2 1 1 20 67 652
805 2 2 1 1 652 67 65
806 2 2 1 1 20 652 19
807 2 2 1 1 89 266 523
808 2 2 1 1 263 120 438
809 2 2 1 1 639 405 49
810 2 2 1 1 74 73 656
811 2 2 1 1 406 572 407
812 2 2 1 1 441 74 656
813 2 2 1 1 10 630 9
814 2 2 1 1 543 548 657
815 2 2 1 1 486 543 657
816 2 2 1 1 377 378 397
817 2 2 1 1 95 134 597
818 2 2 1 1 597 134 658
819 2 2 1 1 658 134 135
820 2 2 1 1 150 151 560
821 2 2 1 1 615 614 659
822 2 2 1 1 659 614 660
823 2 2 1 1 584 659 660
824 2 2 1 1 615 659 624
825 2 2 1 1 661 662 557
826 2 2 1 1 557 663 661
827 2 2 1 1 643 661 663
828 2 2 1 1 267 655 78
829 2 2 1 1 243 78 655
830 2 2 1 1 598 599 110
831 2 2 1 1 224 225 101
832 2 2 1 1 224 101 259
833 2 2 1 1 100 101 225
834 2 2 1 1 426 534 414
835 2 2 1 1 662 298 557
836 2 2 1 1 298 664 38
837 2 2 1 1 664 298 662
838 2 2 1 1 646 380 665
839 2 2 1 1 137 485 153
840 2 2 1 1 426 520 533
841 2 2 1 1 627 9 117
842 2 2 1 1 9 627 8
843 2 2 1 1 655 242 243
844 2 2 1 1 470 158 630
845 2 2 1 1 654 438 437
846 2 2 1 1 10 470 630
847 2 2 1 1 536 265 666
848 2 2 1 1 265 536 266
849 2 2 1 1 538 536 666
850 2 2 1 1 658 222 602
851 2 2 1 1 658 602 597
852 2 2 1 1 637 668 667
853 2 2 1 1 668 637 573
854 2 2 1 1 501 313 660
855 2 2 1 1 660 614 501
856 2 2 1 1 517 631 518
857 2 2 1 1 313 501 472
858 2 2 1 1 414 534 506
859 2 2 1 1 636 637 667
860 2 2 1 1 521 248 272
861 2 2 1 1 391 392 129
862 2 2 1 1 392 138 129
863 2 2 1 1 397 669 377
864 2 2 1 1 261 377 669
865 2 2 1 1 393 394 579
866 2 2 1 1 348 431 670
867 2 2 1 1 521 258 248
868 2 2 1 1 464 465 411
869 2 2 1 1 348 670 347
870 2 2 1 1 531 600 532
871 2 2 1 1 31 458 319
872 2 2 1 1 319 458 322
873 2 2 1 1 444 21 105
874 2 2 1 1 246 247 456
875 2 2 1 1 197 201 315
876 2 2 1 1 106 128 610
877 2 2 1 1 128 40 610
878 2 2 1 1 344 356 492
879 2 2 1 1 492 356 289
880 2 2 1 1 145 313 142
881 2 2 1 1 478 147 148
882 2 2 1 1 671 255 594
883 2 2 1 1 594 255 256
884 2 2 1 1 650 233 644
885 2 2 1 1 233 232 644
886 2 2 1 1 191 353 190
887 2 2 1 1 103 539 13
888 2 2 1 1 475 529 187
889 2 2 1 1 103 13 12
890 2 2 1 1 41 610 40
891 2 2 1 1 83 626 85
892 2 2 1 1 626 553 85
893 2 2 1 1 251 166 161
894 2 2 1 1 503 163 161
895 2 2 1 1 547 514 307
896 2 2 1 1 306 547 307
897 2 2 1 1 392 620 138
898 2 2 1 1 558 331 332
899 2 2 1 1 552 619 551
900 2 2 1 1 619 6 551
901 2 2 1 1 423 390 396
902 2 2 1 1 605 640 655
903 2 2 1 1 620 484 138
904 2 2 1 1 481 593 672
905 2 2 1 1 278 281 564
906 2 2 1 1 404 408 281
907 2 2 1 1 564 281 408
908 2 2 1 1 1 673 610
909 2 2 1 1 544 655 640
910 2 2 1 1 242 655 544
911 2 2 1 1 632 174 219
912 2 2 1 1 672 647 481
913 2 2 1 1 599 617 638
914 2 2 1 1 599 638 110
915 2 2 1 1 568 198 327
916 2 2 1 1 435 104 218
917 2 2 1 1 305 304 203
918 2 2 1 1 305 203 509
919 2 2 1 1 652 394 395
920 2 2 1 1 652 65 394
921 2 2 1 1 72 357 670
922 2 2 1 1 259 467 272
923 2 2 1 1 444 673 21
924 2 2 1 1 644 561 674
925 2 2 1 1 631 674 567
926 2 2 1 1 567 674 561
927 2 2 1 1 228 515 399
928 2 2 1 1 124 515 228
929 2 2 1 1 515 124 670
930 2 2 1 1 218 437 435
931 2 2 1 1 240 35 210
932 2 2 1 1 239 35 240
933 2 2 1 1 207 585 554
934 2 2 1 1 509 207 554
935 2 2 1 1 368 180 178
936 2 2 1 1 660 311 584
937 2 2 1 1 296 376 480
938 2 2 1 1 296 480 295
939 2 2 1 1 368 403 180
940 2 2 1 1 631 517 674
941 2 2 1 1 538 674 517
942 2 2 1 1 559 556 44
943 2 2 1 1 335 675 332
944 2 2 1 1 332 675 676
945 2 2 1 1 666 265 134
946 2 2 1 1 666 134 649
947 2 2 1 1 14 153 15
948 2 2 1 1 397 378 396
949 2 2 1 1 551 6 5
950 2 2 1 1 584 206 659
951 2 2 1 1 520 465 454
952 2 2 1 1 677 310 678
953 2 2 1 1 311 312 229
954 2 2 1 1 14 677 678
955 2 2 1 1 15 677 14
956 2 2 1 1 405 54 49
957 2 2 1 1 394 65 623
958 2 2 1 1 616 623 71
959 2 2 1 1 65 71 623
960 2 2 1 1 634 11 12
961 2 2 1 1 592 581 582
962 2 2 1 1 487 657 645
963 2 2 1 1 162 163 522
964 2 2 1 1 487 645 191
965 2 2 1 1 312 55 125
966 2 2 1 1 507 462 578
967 2 2 1 1 143 55 145
968 2 2 1 1 312 145 55
969 2 2 1 1 245 234 493
970 2 2 1 1 116 159 679
971 2 2 1 1 256 596 594
972 2 2 1 1 607 596 256
973 2 2 1 1 427 578 462
974 2 2 1 1 507 578 580
975 2 2 1 1 543 123 548
976 2 2 1 1 540 118 119
977 2 2 1 1 616 71 500
978 2 2 1 1 388 601 183
979 2 2 1 1 625 601 381
980 2 2 1 1 525 641 524
981 2 2 1 1 550 590 85
982 2 2 1 1 550 85 553
983 2 2 1 1 350 577 574
984 2 2 1 1 351 350 574
985 2 2 1 1 406 351 574
986 2 2 1 1 290 235 586
987 2 2 1 1 87 215 135
988 2 2 1 1 87 135 133
989 2 2 1 1 215 221 135
990 2 2 1 1 469 586 235
991 2 2 1 1 606 483 505
992 2 2 1 1 288 235 290
993 2 2 1 1 288 234 235
994 2 2 1 1 621 583 680
995 2 2 1 1 613 680 595
996 2 2 1 1 680 583 595
997 2 2 1 1 328 491 310
998 2 2 1 1 678 310 491
999 2 2 1 1 441 28 26
1000 2 2 1 1 656 86 28
1001 2 2 1 1 441 656 28
1002 2 2 1 1 628 358 357
1003 2 2 1 1 358 628 535
1004 2 2 1 1 388 183 172
1005 2 2 1 1 628 471 535
1006 2 2 1 1 423 680 613
1007 2 2 1 1 276 352 275
1008 2 2 1 1 613 424 423
1009 2 2 1 1 660 313 311
1010 2 2 1 1 436 118 540
1011 2 2 1 1 666 650 538
1012 2 2 1 1 538 650 644
1013 2 2 1 1 644 674 538
1014 2 2 1 1 522 508 523
1015 2 2 1 1 626 627 115
1016 2 2 1 1 627 117 115
1017 2 2 1 1 120 118 438
1018 2 2 1 1 664 122 38
1019 2 2 1 1 532 601 625
1020 2 2 1 1 625 530 532
1021 2 2 1 1 469 634 586
1022 2 2 1 1 326 198 285
1023 2 2 1 1 198 568 201
1024 2 2 1 1 326 327 198
1025 2 2 1 1 606 505 519
1026 2 2 1 1 298 556 557
1027 2 2 1 1 298 44 556
1028 2 2 1 1 553 626 115
1029 2 2 1 1 129 120 681
1030 2 2 1 1 218 104 217
1031 2 2 1 1 617 599 253
1032 2 2 1 1 104 11 217
1033 2 2 1 1 390 424 392
1034 2 2 1 1 23 24 333
1035 2 2 1 1 620 392 424
1036 2 2 1 1 202 526 195
1037 2 2 1 1 202 300 526
1038 2 2 1 1 511 513 682
1039 2 2 1 1 513 683 682
1040 2 2 1 1 576 280 278
1041 2 2 1 1 602 560 425
1042 2 2 1 1 280 653 443
1043 2 2 1 1 443 653 460
1044 2 2 1 1 459 460 653
1045 2 2 1 1 142 313 472
1046 2 2 1 1 557 676 663
1047 2 2 1 1 676 675 663
1048 2 2 1 1 610 41 367
1049 2 2 1 1 643 574 577
1050 2 2 1 1 661 643 30
1051 2 2 1 1 30 643 577
1052 2 2 1 1 327 404 568
1053 2 2 1 1 657 548 168
1054 2 2 1 1 184 171 169
1055 2 2 1 1 548 679 168
1056 2 2 1 1 310 677 309
1057 2 2 1 1 505 506 519
1058 2 2 1 1 276 476 609
1059 2 2 1 1 188 169 183
1060 2 2 1 1 183 601 188
1061 2 2 1 1 57 530 56
1062 2 2 1 1 598 108 80
1063 2 2 1 1 80 566 598
1064 2 2 1 1 276 609 354
1065 2 2 1 1 528 635 257
1066 2 2 1 1 257 635 247
1067 2 2 1 1 635 456 247
1068 2 2 1 1 354 352 276
1069 2 2 1 1 222 340 603
1070 2 2 1 1 50 545 544
1071 2 2 1 1 49 50 544
1072 2 2 1 1 459 423 396
1073 2 2 1 1 437 641 654
1074 2 2 1 1 683 513 447
1075 2 2 1 1 639 605 563
1076 2 2 1 1 563 605 604
1077 2 2 1 1 605 639 640
1078 2 2 1 1 656 73 86
1079 2 2 1 1 641 525 654
1080 2 2 1 1 526 524 195
1081 2 2 1 1 103 104 435
1082 2 2 1 1 352 353 275
1083 2 2 1 1 103 435 436
1084 2 2 1 1 274 353 646
1085 2 2 1 1 353 274 275
1086 2 2 1 1 491 633 678
1087 2 2 1 1 635 528 683
1088 2 2 1 1 303 305 299
1089 2 2 1 1 292 509 554
1090 2 2 1 1 100 249 102
1091 2 2 1 1 502 633 491
1092 2 2 1 1 195 524 541
1093 2 2 1 1 337 386 170
1094 2 2 1 1 320 172 386
1095 2 2 1 1 172 170 386
1096 2 2 1 1 223 224 535
1097 2 2 1 1 224 246 535
1098 2 2 1 1 297 618 611
1099 2 2 1 1 294 297 611
1100 2 2 1 1 622 173 8
1101 2 2 1 1 27 28 590
1102 2 2 1 1 349 635 683
1103 2 2 1 1 208 244 184
1104 2 2 1 1 301 373 374
1105 2 2 1 1 162 537 161
1106 2 2 1 1 252 161 537
1107 2 2 1 1 518 463 252
1108 2 2 1 1 629 630 158
1109 2 2 1 1 294 611 496
1110 2 2 1 1 158 159 629
1111 2 2 1 1 588 295 648
1112 2 2 1 1 295 480 648
1113 2 2 1 1 494 315 201
1114 2 2 1 1 683 447 348
1115 2 2 1 1 201 612 494
1116 2 2 1 1 464 411 409
1117 2 2 1 1 606 519 338
1118 2 2 1 1 527 170 171
1119 2 2 1 1 171 651 527
1120 2 2 1 1 603 340 398
1121 2 2 1 1 338 422 606
1122 2 2 1 1 567 561 562
1123 2 2 1 1 84 73 6
1124 2 2 1 1 624 659 204
1125 2 2 1 1 204 659 206
1126 2 2 1 1 683 348 349
1127 2 2 1 1 564 576 278
1128 2 2 1 1 304 302 507
1129 2 2 1 1 287 419 362
1130 2 2 1 1 13 539 152
1131 2 2 1 1 152 14 13
1132 2 2 1 1 625 382 471
1133 2 2 1 1 22 93 24
1134 2 2 1 1 93 91 24
1135 2 2 1 1 587 179 180
1136 2 2 1 1 583 581 671
1137 2 2 1 1 595 583 671
1138 2 2 1 1 302 346 440
1139 2 2 1 1 302 303 346
1140 2 2 1 1 682 529 475
1141 2 2 1 1 249 322 458
1142 2 2 1 1 7 626 83
1143 2 2 1 1 314 419 287
1144 2 2 1 1 135 221 658
1145 2 2 1 1 223 535 471
1146 2 2 1 1 671 592 504
1147 2 2 1 1 628 357 56
1148 2 2 1 1 671 504 255
1149 2 2 1 1 671 581 592
1150 2 2 1 1 25 508 163
1151 2 2 1 1 50 48 372
1152 2 2 1 1 498 428 450
1153 2 2 1 1 497 16 498
1154 2 2 1 1 326 362 48
1155 2 2 1 1 48 362 372
1156 2 2 1 1 662 661 30
1157 2 2 1 1 27 662 30
1158 2 2 1 1 221 222 658
1159 2 2 1 1 650 666 649
1160 2 2 1 1 497 309 677
1161 2 2 1 1 56 357 72
1162 2 2 1 1 15 497 677
1163 2 2 1 1 601 318 188
1164 2 2 1 1 397 391 669
1165 2 2 1 1 417 418 434
1166 2 2 1 1 617 572 637
1167 2 2 1 1 572 573 637
1168 2 2 1 1 159 168 679
1169 2 2 1 1 245 645 657
1170 2 2 1 1 335 684 675
1171 2 2 1 1 139 202 141
1172 2 2 1 1 266 536 162
1173 2 2 1 1 537 162 536
1174 2 2 1 1 141 202 194
1175 2 2 1 1 621 459 653
1176 2 2 1 1 680 423 459
1177 2 2 1 1 621 680 459
1178 2 2 1 1 678 633 13
1179 2 2 1 1 182 647 375
1180 2 2 1 1 375 647 672
1181 2 2 1 1 254 284 256
1182 2 2 1 1 254 468 284
1183 2 2 1 1 468 283 284
1184 2 2 1 1 383 225 223
1185 2 2 1 1 487 191 189
1186 2 2 1 1 181 647 182
1187 2 2 1 1 569 279 612
1188 2 2 1 1 335 269 684
1189 2 2 1 1 509 203 207
1190 2 2 1 1 612 279 442
1191 2 2 1 1 201 569 612
1192 2 2 1 1 669 681 263
1193 2 2 1 1 261 669 263
1194 2 2 1 1 80 108 76
1195 2 2 1 1 445 453 109
1196 2 2 1 1 263 681 120
1197 2 2 1 1 174 632 173
1198 2 2 1 1 140 227 342
1199 2 2 1 1 227 216 342
1200 2 2 1 1 34 239 144
1201 2 2 1 1 34 144 142
1202 2 2 1 1 632 9 173
1203 2 2 1 1 618 495 494
1204 2 2 1 1 591 662 27
1205 2 2 1 1 115 116 549
1206 2 2 1 1 492 328 329
1207 2 2 1 1 492 329 344
1208 2 2 1 1 553 115 549
1209 2 2 1 1 469 470 634
1210 2 2 1 1 565 563 604
1211 2 2 1 1 634 470 11
1212 2 2 1 1 667 668 684
1213 2 2 1 1 668 675 684
1214 2 2 1 1 550 122 590
1215 2 2 1 1 11 470 10
1216 2 2 1 1 669 391 681
1217 2 2 1 1 679 548 549
1218 2 2 1 1 549 116 679
1219 2 2 1 1 116 629 159
1220 2 2 1 1 646 665 274
1221 2 2 1 1 559 130 136
1222 2 2 1 1 457 506 534
1223 2 2 1 1 124 72 670
1224 2 2 1 1 506 457 32
1225 2 2 1 1 506 32 519
1226 2 2 1 1 186 559 136
1227 2 2 1 1 356 665 380
1228 2 2 1 1 356 355 665
1229 2 2 1 1 394 623 579
1230 2 2 1 1 261 264 377
1231 2 2 1 1 464 409 165
1232 2 2 1 1 189 542 487
1233 2 2 1 1 671 594 595
1234 2 2 1 1 430 428 498
1235 2 2 1 1 314 439 418
1236 2 2 1 1 286 439 314
1237 2 2 1 1 430 498 17
1238 2 2 1 1 498 16 17
1239 2 2 1 1 180 403 587
1240 2 2 1 1 219 174 541
1241 2 2 1 1 476 512 609
1242 2 2 1 1 684 269 270
1243 2 2 1 1 270 667 684
1244 2 2 1 1 420 419 417
1245 2 2 1 1 495 618 588
1246 2 2 1 1 542 130 39
1247 2 2 1 1 587 403 359
1248 2 2 1 1 629 116 117
1249 2 2 1 1 662 591 664
1250 2 2 1 1 273 355 345
1251 2 2 1 1 558 332 676
1252 2 2 1 1 196 402 151
1253 2 2 1 1 665 355 274
1254 2 2 1 1 555 171 184
1255 2 2 1 1 398 479 603
1256 2 2 1 1 240 323 238
1257 2 2 1 1 101 467 259
1258 2 2 1 1 619 7 6
1259 2 2 1 1 47 243 244
1260 2 2 1 1 668 573 642
1261 2 2 1 1 675 668 663
1262 2 2 1 1 663 668 642
1263 2 2 1 1 670 357 347
1264 2 2 1 1 47 244 208
1265 2 2 1 1 350 363 577
1266 2 2 1 1 125 229 312
1267 2 2 1 1 60 472 501
1268 2 2 1 1 636 667 270
1269 2 2 1 1 678 13 14
1270 2 2 1 1 528 529 682
1271 2 2 1 1 229 685 585
1272 2 2 1 1 685 554 585
1273 2 2 1 1 685 229 399
1274 2 2 1 1 488 186 187
1275 2 2 1 1 146 175 622
1276 2 2 1 1 645 245 493
1277 2 2 1 1 622 175 173
1278 2 2 1 1 204 205 580
1279 2 2 1 1 651 589 527
1280 2 2 1 1 527 589 339
1281 2 2 1 1 23 333 334
1282 2 2 1 1 639 563 405
1283 2 2 1 1 565 604 582
1284 2 2 1 1 258 490 260
1285 2 2 1 1 683 528 682
1286 2 2 1 1 636 270 387
1287 2 2 1 1 520 452 533
1288 2 2 1 1 473 374 672
1289 2 2 1 1 672 374 375
1290 2 2 1 1 105 254 107
1291 2 2 1 1 105 468 254
1292 2 2 1 1 179 648 181
1293 2 2 1 1 400 141 194
1294 2 2 1 1 179 588 648
1295 2 2 1 1 482 434 429
1296 2 2 1 1 206 584 585
1297 2 2 1 1 207 206 585
1298 2 2 1 1 642 643 663
1299 2 2 1 1 110 638 111
1300 2 2 1 1 477 552 149
1301 2 2 1 1 150 477 149
1302 2 2 1 1 252 463 251
1303 2 2 1 1 603 602 222
1304 2 2 1 1 486 657 487
1305 2 2 1 1 431 515 670
1306 2 2 1 1 432 515 431
1307 2 2 1 1 611 442 496
1308 2 2 1 1 34 35 239
1309 2 2 1 1 295 588 297
1310 2 2 1 1 618 297 588
1311 2 2 1 1 529 488 187
1312 2 2 1 1 225 383 100
1313 2 2 1 1 249 100 322
1314 2 2 1 1 100 383 322
1315 2 2 1 1 529 489 488
1316 2 2 1 1 475 474 511
1317 2 2 1 1 211 466 306
1318 2 2 1 1 212 466 211
1319 2 2 1 1 457 114 458
1320 2 2 1 1 319 321 320
1321 2 2 1 1 219 541 220
1322 2 2 1 1 631 567 77
1323 2 2 1 1 143 57 55
1324 2 2 1 1 198 199 285
1325 2 2 1 1 475 511 682
1326 2 2 1 1 531 57 143
1327 2 2 1 1 591 122 664
1328 2 2 1 1 521 213 324
1329 2 2 1 1 177 519 32
1330 2 2 1 1 380 646 493
1331 2 2 1 1 685 516 554
1332 2 2 1 1 399 516 685
1333 2 2 1 1 273 299 277
1334 2 2 1 1 622 8 7
1335 2 2 1 1 123 122 550
1336 2 2 1 1 381 382 625
1337 2 2 1 1 345 299 273
1338 2 2 1 1 205 203 304
1339 2 2 1 1 507 205 304
1340 2 2 1 1 513 433 447
1341 2 2 1 1 601 389 381
1342 2 2 1 1 388 389 601
1343 2 2 1 1 205 507 580
1344 2 2 1 1 197 316 199
1345 2 2 1 1 199 316 286
1346 2 2 1 1 37 542 39
1347 2 2 1 1 37 487 542
1348 2 2 1 1 387 111 638
1349 2 2 1 1 636 387 638
1350 2 2 1 1 262 525 593
1351 2 2 1 1 654 525 262
1352 2 2 1 1 593 473 672
1353 2 2 1 1 525 473 593
1354 2 2 1 1 512 510 609
1355 2 2 1 1 676 557 558
1356 2 2 1 1 681 391 129
1357 2 2 1 1 121 123 543
1358 2 2 1 1 555 651 171
1359 2 2 1 1 1 610 367
1360 2 2 1 1 522 163 508
1361 2 2 1 1 245 657 168
1362 2 2 1 1 211 325 213
1363 2 2 1 1 598 110 108
1364 2 2 1 1 271 325 211
1365 2 2 1 1 673 1 21
1366 2 2 1 1 673 444 610
$EndElements
